<svg width="40" height="40" viewBox="0 0 40 40" fill="none" xmlns="http://www.w3.org/2000/svg">
<path fill-rule="evenodd" clip-rule="evenodd" d="M11.6665 23.8299C11.6665 23.5126 11.7954 23.2088 12.0237 22.9883L12.8812 22.1602C13.2076 21.8449 13.3913 21.4102 13.39 20.9564L13.3821 18.3288C13.371 14.6527 16.3481 11.6667 20.0243 11.6667C23.6927 11.6667 26.6665 14.6405 26.6665 18.3089L26.6665 20.9763C26.6665 21.4183 26.8421 21.8423 27.1547 22.1548L27.988 22.9882C28.209 23.2092 28.3332 23.5089 28.3332 23.8215C28.3332 24.4724 27.8055 25 27.1547 25H23.3332C23.3332 26.841 21.8408 28.3333 19.9998 28.3333C18.1589 28.3333 16.6665 26.841 16.6665 25H12.8366C12.1904 25 11.6665 24.4761 11.6665 23.8299ZM18.3332 25C18.3332 25.9205 19.0794 26.6667 19.9998 26.6667C20.9203 26.6667 21.6665 25.9205 21.6665 25H18.3332ZM24.9998 20.9763C24.9998 21.8604 25.351 22.7082 25.9761 23.3333L14.0653 23.3333C14.7017 22.705 15.0593 21.8467 15.0566 20.9513L15.0487 18.3238C15.0405 15.5701 17.2705 13.3333 20.0243 13.3333C22.7722 13.3333 24.9998 15.561 24.9998 18.3089L24.9998 20.9763Z" fill="#6F767E"/>
<rect x="19.334" y="8.5" width="9" height="9" rx="4.5" fill="#FF6A55"/>
<rect x="19.334" y="8.5" width="9" height="9" rx="4.5" stroke="#FCFCFC"/>
</svg>
