<svg width="16" height="16" viewBox="0 0 16 16" fill="none" xmlns="http://www.w3.org/2000/svg">
<path d="M6.99224 1.43722C7.35769 0.531344 8.64018 0.531344 9.00563 1.43722L10.4076 4.91243C10.4588 5.03939 10.5773 5.12657 10.7137 5.1377L14.2353 5.42505C15.1901 5.50296 15.5833 6.68939 14.8639 7.32209L12.1917 9.67238C12.0928 9.75936 12.049 9.8932 12.0773 10.0218L12.9318 13.9059C13.1453 14.8761 12.0513 15.5996 11.242 15.0234L8.20881 12.8637C8.08318 12.7743 7.91468 12.7743 7.78906 12.8637L4.75585 15.0234C3.94659 15.5996 2.8526 14.8761 3.06606 13.9059L3.92057 10.0218C3.94887 9.8932 3.90504 9.75936 3.80614 9.67238L1.13384 7.3221C0.414455 6.68941 0.807603 5.50296 1.76246 5.42505L5.28413 5.1377C5.42057 5.12657 5.53905 5.03939 5.59026 4.91243L6.99224 1.43722Z" fill="#353945"/>
</svg>
