<svg width="20" height="20" viewBox="0 0 20 20" fill="none" xmlns="http://www.w3.org/2000/svg">
<path fill-rule="evenodd" clip-rule="evenodd" d="M2.5 6.5C2.5 5.09987 2.5 4.3998 2.77248 3.86502C3.01217 3.39462 3.39462 3.01217 3.86502 2.77248C4.3998 2.5 5.09987 2.5 6.5 2.5H13.5C14.9001 2.5 15.6002 2.5 16.135 2.77248C16.6054 3.01217 16.9878 3.39462 17.2275 3.86502C17.5 4.3998 17.5 5.09987 17.5 6.5V13.5C17.5 14.9001 17.5 15.6002 17.2275 16.135C16.9878 16.6054 16.6054 16.9878 16.135 17.2275C15.6002 17.5 14.9001 17.5 13.5 17.5H6.5C5.09987 17.5 4.3998 17.5 3.86502 17.2275C3.39462 16.9878 3.01217 16.6054 2.77248 16.135C2.5 15.6002 2.5 14.9001 2.5 13.5V6.5ZM4.16667 11.6667C4.16667 11.2064 4.53976 10.8333 5 10.8333C5.46024 10.8333 5.83333 11.2064 5.83333 11.6667V15C5.83333 15.4602 5.46024 15.8333 5 15.8333C4.53976 15.8333 4.16667 15.4602 4.16667 15V11.6667ZM8.33333 5.83333C7.8731 5.83333 7.5 6.20643 7.5 6.66667V15C7.5 15.4602 7.8731 15.8333 8.33333 15.8333C8.79357 15.8333 9.16667 15.4602 9.16667 15V6.66667C9.16667 6.20643 8.79357 5.83333 8.33333 5.83333ZM10.8333 8.33333C10.8333 7.8731 11.2064 7.5 11.6667 7.5C12.1269 7.5 12.5 7.8731 12.5 8.33333V15C12.5 15.4602 12.1269 15.8333 11.6667 15.8333C11.2064 15.8333 10.8333 15.4602 10.8333 15V8.33333ZM15 4.16667C14.5398 4.16667 14.1667 4.53976 14.1667 5V15C14.1667 15.4602 14.5398 15.8333 15 15.8333C15.4602 15.8333 15.8333 15.4602 15.8333 15V5C15.8333 4.53976 15.4602 4.16667 15 4.16667Z" fill="#B1B5C4"/>
</svg>
