<svg width="20" height="20" viewBox="0 0 20 20" fill="none" xmlns="http://www.w3.org/2000/svg">
<path d="M5.18311 4.25833C6.48477 3.16167 8.16394 2.5 9.99977 2.5C14.1423 2.5 17.4998 5.8575 17.4998 10C17.4998 11.2058 17.2081 12.3417 16.7023 13.3508L14.4681 12.2342" stroke="#23262F" stroke-width="1.25" stroke-linecap="round" stroke-linejoin="round"/>
<path d="M14.8167 15.7417C13.515 16.8383 11.8358 17.5 10 17.5C5.8575 17.5 2.5 14.1417 2.5 10C2.5 8.79417 2.79167 7.65834 3.2975 6.64917L5.53167 7.76584" stroke="#23262F" stroke-width="1.25" stroke-linecap="round" stroke-linejoin="round"/>
<path d="M10.0002 5.83331V6.87498" stroke="#23262F" stroke-width="1.25" stroke-linecap="round" stroke-linejoin="round"/>
<path d="M10.0002 14.1667V13.125" stroke="#23262F" stroke-width="1.25" stroke-linecap="round" stroke-linejoin="round"/>
<path d="M12.0723 8.33333C12.0182 7.52 11.3473 6.875 10.5207 6.875H9.379C8.57067 6.875 7.9165 7.53 7.9165 8.3375C7.9165 9.00833 8.37317 9.59333 9.02317 9.75667L10.9757 10.2467C11.6265 10.41 12.0823 10.995 12.0823 11.6658C12.0823 12.4742 11.4273 13.1283 10.6198 13.1283H9.47817C8.64984 13.1283 7.979 12.4817 7.92567 11.6667" stroke="#23262F" stroke-width="1.25" stroke-linecap="round" stroke-linejoin="round"/>
</svg>
