<svg width="250" height="100" viewBox="0 0 250 100" fill="none" xmlns="http://www.w3.org/2000/svg">
    <path fill-rule="evenodd" clip-rule="evenodd"
          d="M51.0026 25.3375C52.3793 25.3348 53.7259 25.738 54.8719 26.4961C56.018 27.2542 56.9119 28.3332 57.4405 29.5964C57.9692 30.8596 58.1088 32.2503 57.8417 33.5924C57.5747 34.9345 56.9129 36.1677 55.9402 37.1359C54.9675 38.1041 53.7276 38.7638 52.3775 39.0314C51.0274 39.299 49.6277 39.1626 48.3556 38.6394C47.0835 38.1161 45.9963 37.2296 45.2314 36.0921C44.4666 34.9545 44.0586 33.617 44.0591 32.2489C44.0621 30.4199 44.7946 28.6666 46.0961 27.3733C47.3977 26.08 49.162 25.352 51.0026 25.349M101.69 20.8019L50.2133 0.205566L0.314789 20.8019L6.38575 23.3319V34.2453C5.79012 34.5475 5.29011 35.0074 4.94091 35.5742C4.59171 36.141 4.40691 36.7927 4.40691 37.4572C4.40691 38.1218 4.59171 38.7735 4.94091 39.3403C5.29011 39.9071 5.79012 40.367 6.38575 40.6692V42.5805L6.08024 43.3234L4.12216 48.0567H11.9522L9.99639 43.3234L9.68625 42.5805V40.6853C10.2826 40.3837 10.7833 39.924 11.133 39.3571C11.4828 38.7902 11.6679 38.1383 11.6679 37.4734C11.6679 36.8084 11.4828 36.1565 11.133 35.5896C10.7833 35.0227 10.2826 34.563 9.68625 34.2614V24.6958L26.1887 31.5589V38.1553C34.9342 39.3151 43.2789 42.5166 50.5397 47.4978L50.6161 47.5507L51.1692 47.2218C58.4838 42.8829 66.5194 39.8771 74.8976 38.3462V31.4278L101.69 20.8019Z"
          fill="#1E2235"/>
    <path fill-rule="evenodd" clip-rule="evenodd"
          d="M21.5713 51.1824C29.7763 51.1473 37.7777 53.7206 44.4062 58.5263L44.0081 96.9613L48.2252 99.9789V52.4911C38.7973 46.0116 27.4697 42.8296 16.0234 43.4453L16.1576 88.4398C24.9342 88.5257 32.1154 90.2468 37.7011 93.6033C34.2617 88.8377 28.9291 85.6293 21.7032 83.9779L21.5713 51.1824Z"
          fill="#1E2235"/>
    <path fill-rule="evenodd" clip-rule="evenodd"
          d="M80.4409 51.1824C72.2358 51.1473 64.2344 53.7206 57.6059 58.5262L58.004 96.9613L53.7869 99.9788V52.4911C63.2149 46.0116 74.5425 42.8296 85.9887 43.4453L85.8545 88.4398C77.0779 88.5257 69.8967 90.2468 64.311 93.6033C67.7504 88.8377 73.083 85.6292 80.3089 83.9779L80.4409 51.1824Z"
          fill="#FBBF24"/>
    <path d="M124.06 67.7939V32.6831H147.307V38.8035H131.483V47.1698H145.764V53.2901H131.483V67.7939H124.06Z"
          fill="#1E2235"/>
    <path d="M163.679 68.3083C160.971 68.3083 158.639 67.7597 156.685 66.6624C154.742 65.5538 153.244 63.988 152.193 61.965C151.141 59.9306 150.616 57.5247 150.616 54.7474C150.616 52.0386 151.141 49.6613 152.193 47.6155C153.244 45.5696 154.724 43.9753 156.633 42.8323C158.553 41.6894 160.805 41.1179 163.388 41.1179C165.125 41.1179 166.742 41.398 168.24 41.958C169.748 42.5066 171.063 43.3352 172.183 44.4439C173.314 45.5525 174.194 46.9469 174.823 48.627C175.451 50.2957 175.766 52.2501 175.766 54.4902V56.4961H153.53V51.9701H168.891C168.891 50.9186 168.662 49.9871 168.205 49.1756C167.748 48.3641 167.114 47.7298 166.302 47.2726C165.502 46.804 164.571 46.5697 163.508 46.5697C162.399 46.5697 161.416 46.8269 160.559 47.3412C159.713 47.8441 159.05 48.5241 158.57 49.3813C158.09 50.2271 157.845 51.17 157.833 52.2101V56.5132C157.833 57.8162 158.073 58.9419 158.553 59.8906C159.045 60.8392 159.736 61.5707 160.628 62.085C161.519 62.5993 162.576 62.8565 163.799 62.8565C164.611 62.8565 165.354 62.7422 166.028 62.5136C166.702 62.285 167.28 61.9421 167.76 61.485C168.24 61.0278 168.605 60.4678 168.857 59.8049L175.611 60.2506C175.269 61.8736 174.566 63.2908 173.503 64.5023C172.451 65.7024 171.091 66.6396 169.423 67.3139C167.765 67.9768 165.851 68.3083 163.679 68.3083Z"
          fill="#1E2235"/>
    <path d="M181.98 67.7939V41.4608H188.941V46.1068H189.249C189.798 44.5639 190.712 43.3466 191.992 42.4552C193.272 41.5637 194.804 41.1179 196.587 41.1179C198.393 41.1179 199.93 41.5694 201.199 42.4723C202.467 43.3638 203.313 44.5753 203.736 46.1068H204.01C204.547 44.5982 205.519 43.3924 206.925 42.4895C208.342 41.5751 210.016 41.1179 211.948 41.1179C214.405 41.1179 216.399 41.9008 217.931 43.4667C219.474 45.021 220.245 47.2269 220.245 50.0842V67.7939H212.959V51.5243C212.959 50.0614 212.571 48.9642 211.793 48.2327C211.016 47.5012 210.045 47.1355 208.879 47.1355C207.553 47.1355 206.519 47.5583 205.776 48.4041C205.033 49.2385 204.662 50.3414 204.662 51.7129V67.7939H197.581V51.37C197.581 50.0785 197.21 49.0499 196.467 48.2841C195.735 47.5183 194.77 47.1355 193.569 47.1355C192.758 47.1355 192.026 47.3412 191.375 47.7526C190.735 48.1527 190.226 48.7184 189.849 49.4499C189.472 50.1699 189.283 51.0157 189.283 51.9872V67.7939H181.98Z"
          fill="#1E2235"/>
    <path d="M249.373 48.9699L242.687 49.3813C242.572 48.8099 242.327 48.2955 241.949 47.8384C241.572 47.3698 241.075 46.9983 240.458 46.724C239.852 46.4383 239.126 46.2954 238.281 46.2954C237.149 46.2954 236.195 46.5354 235.418 47.0155C234.64 47.4841 234.252 48.1127 234.252 48.9013C234.252 49.5299 234.503 50.0614 235.006 50.4957C235.509 50.93 236.372 51.2786 237.595 51.5415L242.361 52.5015C244.921 53.0273 246.83 53.873 248.087 55.0388C249.344 56.2046 249.973 57.7361 249.973 59.6334C249.973 61.3592 249.464 62.8736 248.447 64.1766C247.441 65.4795 246.058 66.4967 244.298 67.2282C242.549 67.9482 240.532 68.3083 238.246 68.3083C234.76 68.3083 231.983 67.5825 229.914 66.131C227.857 64.668 226.651 62.6793 226.297 60.1649L233.48 59.7877C233.697 60.8506 234.223 61.6621 235.057 62.2222C235.892 62.7708 236.96 63.0451 238.263 63.0451C239.543 63.0451 240.572 62.7993 241.349 62.3079C242.138 61.805 242.538 61.1592 242.549 60.3706C242.538 59.7077 242.258 59.1648 241.709 58.7419C241.161 58.3076 240.315 57.9762 239.172 57.7476L234.612 56.8389C232.04 56.3246 230.126 55.4331 228.869 54.1645C227.623 52.8958 227 51.2786 227 49.3127C227 47.6212 227.457 46.164 228.371 44.941C229.297 43.7181 230.594 42.7752 232.263 42.1123C233.943 41.4494 235.909 41.1179 238.161 41.1179C241.486 41.1179 244.104 41.8208 246.012 43.2266C247.933 44.6324 249.053 46.5469 249.373 48.9699Z"
          fill="#1E2235"/>
</svg>
