<svg width="137" height="40" viewBox="0 0 137 40" fill="none" xmlns="http://www.w3.org/2000/svg">
<g clip-path="url(#clip0_121_5597)">
<rect width="137" height="40" fill="white"/>
<path fill-rule="evenodd" clip-rule="evenodd" d="M48.3389 10.0431C48.9001 10.042 49.4491 10.2035 49.9163 10.5071C50.3835 10.8108 50.7479 11.2429 50.9634 11.7488C51.1789 12.2547 51.2358 12.8117 51.1269 13.3492C51.0181 13.8868 50.7483 14.3807 50.3518 14.7684C49.9552 15.1562 49.4498 15.4204 48.8994 15.5276C48.349 15.6348 47.7784 15.5801 47.2599 15.3706C46.7413 15.161 46.2981 14.806 45.9863 14.3504C45.6745 13.8948 45.5082 13.3591 45.5083 12.8112C45.5096 12.0786 45.8082 11.3764 46.3388 10.8585C46.8693 10.3405 47.5886 10.0489 48.3389 10.0477M69.002 8.22659L48.0172 -0.0223389L27.6758 8.22659L30.1506 9.23986V13.6107C29.9078 13.7318 29.704 13.916 29.5616 14.143C29.4193 14.37 29.344 14.6309 29.344 14.8971C29.344 15.1633 29.4193 15.4243 29.5616 15.6513C29.704 15.8783 29.9078 16.0625 30.1506 16.1835V16.949L30.0261 17.2465L29.2279 19.1423H32.4198L31.6225 17.2465L31.4961 16.949V16.19C31.7392 16.0692 31.9433 15.8851 32.0859 15.658C32.2285 15.431 32.3039 15.1699 32.3039 14.9036C32.3039 14.6373 32.2285 14.3761 32.0859 14.1491C31.9433 13.9221 31.7392 13.738 31.4961 13.6172V9.7861L38.2234 12.5348V15.1767C41.7885 15.6412 45.1903 16.9234 48.1502 18.9184L48.1813 18.9396L48.4068 18.8079C51.3886 17.0701 54.6644 15.8663 58.0798 15.2531V12.4823L69.002 8.22659Z" fill="#1E2235"/>
<path fill-rule="evenodd" clip-rule="evenodd" d="M36.3411 20.3941C39.6859 20.38 42.9477 21.4107 45.6499 23.3353L45.4876 38.7287L47.2067 39.9373V20.9182C43.3633 18.3232 38.7456 17.0488 34.0795 17.2953L34.1342 35.3159C37.712 35.3503 40.6395 36.0396 42.9165 37.3838C41.5144 35.4752 39.3405 34.1902 36.3949 33.5288L36.3411 20.3941Z" fill="#1E2235"/>
<path fill-rule="evenodd" clip-rule="evenodd" d="M60.3396 20.3941C56.9947 20.38 53.7329 21.4106 51.0308 23.3353L51.1931 38.7287L49.474 39.9373V20.9182C53.3173 18.3232 57.9351 17.0488 62.6012 17.2953L62.5465 35.3159C58.9686 35.3502 56.0412 36.0396 53.7642 37.3838C55.1662 35.4752 57.3401 34.1902 60.2858 33.5288L60.3396 20.3941Z" fill="#FBBF24"/>
<path d="M78.1211 27.0471V12.985H87.5979V15.4363H81.1472V18.787H86.9689V21.2383H81.1472V27.0471H78.1211Z" fill="#1E2235"/>
<path d="M90.2238 27.0471V12.985H99.8684V15.4363H93.25V18.787H99.3722V21.2383H93.25V24.5958H99.8964V27.0471H90.2238Z" fill="#1E2235"/>
<path d="M102.865 12.985H106.597L110.538 22.433H110.706L114.648 12.985H118.38V27.0471H115.445V17.8944H115.326L111.622 26.9784H109.623L105.919 17.8601H105.8V27.0471H102.865V12.985Z" fill="#1E2235"/>
<path d="M129.228 17.0293C129.172 16.4754 128.932 16.0451 128.508 15.7384C128.084 15.4317 127.509 15.2784 126.782 15.2784C126.288 15.2784 125.871 15.347 125.531 15.4844C125.191 15.6171 124.93 15.8025 124.748 16.0405C124.571 16.2785 124.483 16.5486 124.483 16.8507C124.473 17.1025 124.527 17.3222 124.644 17.5099C124.765 17.6976 124.93 17.8601 125.14 17.9974C125.349 18.1301 125.592 18.2469 125.867 18.3476C126.141 18.4437 126.435 18.5261 126.747 18.5948L128.033 18.8969C128.657 19.0342 129.23 19.2173 129.752 19.4462C130.274 19.675 130.726 19.9566 131.108 20.2907C131.49 20.6249 131.786 21.0185 131.996 21.4717C132.21 21.9249 132.32 22.4444 132.324 23.0303C132.32 23.8909 132.096 24.637 131.653 25.2687C131.215 25.8958 130.582 26.3833 129.752 26.7312C128.928 27.0745 127.933 27.2462 126.768 27.2462C125.613 27.2462 124.606 27.0723 123.749 26.7244C122.896 26.3765 122.23 25.8615 121.75 25.1795C121.275 24.4928 121.026 23.6437 121.002 22.6321H123.931C123.963 23.1036 124.101 23.4972 124.343 23.8131C124.59 24.1244 124.918 24.3601 125.328 24.5203C125.743 24.6759 126.211 24.7538 126.733 24.7538C127.246 24.7538 127.691 24.6805 128.068 24.534C128.45 24.3876 128.746 24.1839 128.956 23.9229C129.165 23.662 129.27 23.3622 129.27 23.0235C129.27 22.7076 129.175 22.4421 128.984 22.227C128.797 22.0118 128.522 21.8287 128.159 21.6777C127.8 21.5266 127.36 21.3893 126.838 21.2657L125.279 20.8812C124.073 20.5928 123.12 20.1419 122.421 19.5286C121.722 18.9152 121.375 18.0889 121.38 17.0499C121.375 16.1984 121.606 15.4546 122.072 14.8183C122.542 14.1821 123.188 13.6854 124.008 13.3284C124.828 12.9713 125.759 12.7928 126.803 12.7928C127.865 12.7928 128.793 12.9713 129.585 13.3284C130.381 13.6854 131.001 14.1821 131.444 14.8183C131.886 15.4546 132.115 16.1916 132.129 17.0293H129.228Z" fill="#1E2235"/>
</g>
<defs>
<clipPath id="clip0_121_5597">
<rect width="137" height="40" fill="white"/>
</clipPath>
</defs>
</svg>
