<svg width="105" height="24" viewBox="0 0 105 24" fill="none" xmlns="http://www.w3.org/2000/svg">
<path fill-rule="evenodd" clip-rule="evenodd" d="M13.1024 0.0796682C12.2443 0.370837 11.8585 1.3221 12.2666 2.14055C12.4064 2.42107 12.6243 2.63308 12.9445 2.80046C13.1154 2.88978 13.2297 2.90883 13.594 2.90878C13.9778 2.90868 14.0686 2.89176 14.2818 2.78084C14.6058 2.61221 14.8124 2.3934 14.9729 2.04872C15.2327 1.49082 15.0632 0.753888 14.582 0.349722C14.1852 0.0164691 13.6022 -0.0899714 13.1024 0.0796682ZM19.3664 0.379418C18.7866 0.644651 18.4718 1.25143 18.6249 1.80836C18.8722 2.708 19.9663 3.04781 20.667 2.44257C20.9643 2.18582 21.0973 1.89754 21.0951 1.51488C21.0922 1.0252 20.8376 0.625802 20.3803 0.393783C20.1298 0.26671 19.6283 0.259576 19.3664 0.379418ZM7.16842 0.400002C6.4529 0.650484 6.12394 1.38877 6.4413 2.03209C6.80405 2.76744 7.84755 2.9054 8.39752 2.29077C8.97378 1.64673 8.68344 0.645519 7.84956 0.4014C7.55485 0.31511 7.4118 0.314821 7.16842 0.400002ZM16.9066 3.86443C16.4372 3.99459 15.9543 4.38101 15.7412 4.79689C15.2811 5.69484 15.6667 6.80557 16.5934 7.25206C16.857 7.37904 16.9334 7.39278 17.3768 7.39278C17.8061 7.39278 17.9032 7.37658 18.1468 7.26455C18.5374 7.08483 18.8455 6.78875 19.0348 6.41119C19.1827 6.11617 19.1945 6.05711 19.1945 5.60985C19.1945 5.18737 19.1781 5.09274 19.0633 4.85247C18.7832 4.26618 18.1443 3.84866 17.4805 3.8182C17.2884 3.80938 17.0301 3.8302 16.9066 3.86443ZM9.28583 3.93973C8.76882 4.10715 8.41054 4.4377 8.15557 4.98244C8.0642 5.17763 8.04283 5.30605 8.04337 5.65733C8.04391 6.04135 8.06135 6.1272 8.19537 6.40454C8.38765 6.80244 8.69277 7.10204 9.09895 7.29178C9.38782 7.42676 9.46283 7.44084 9.88498 7.43925C10.2973 7.43771 10.3859 7.42127 10.6454 7.298C11.0189 7.1205 11.377 6.7698 11.546 6.41591C11.6618 6.17343 11.6781 6.07991 11.6781 5.65632C11.6781 5.20761 11.6666 5.15034 11.5166 4.85141C11.3285 4.47636 11.0198 4.18341 10.6219 4.0024C10.2585 3.83705 9.68582 3.8102 9.28583 3.93973ZM22.2331 5.02443C20.9455 5.43799 20.8237 7.19561 22.0434 7.76185C22.3906 7.923 22.8416 7.94662 23.2113 7.82302C23.5099 7.72323 23.8583 7.41688 24.023 7.10947C24.1382 6.89446 24.1554 6.80634 24.1555 6.42864C24.1555 6.06916 24.1363 5.9593 24.0433 5.78793C23.8891 5.5036 23.577 5.20906 23.3046 5.09086C23.0215 4.96798 22.508 4.93611 22.2331 5.02443ZM3.70358 5.54024C3.17109 5.80133 2.88807 6.2511 2.8867 6.8384C2.88532 7.43346 3.17463 7.89861 3.71959 8.17768C4.05065 8.34722 4.63585 8.36004 4.97831 8.20525C5.28702 8.06574 5.56518 7.80904 5.71084 7.5292C5.81454 7.33001 5.83203 7.23022 5.83203 6.8384C5.83203 6.42623 5.81857 6.35802 5.69772 6.15622C5.52072 5.86081 5.16932 5.56246 4.88713 5.46812C4.76225 5.42637 4.51279 5.3922 4.33279 5.3922C4.06574 5.3922 3.9499 5.41943 3.70358 5.54024ZM88.2625 5.544C87.9799 5.61785 87.9226 5.73471 87.9226 6.23697C87.9226 6.6408 87.9341 6.69802 88.037 6.80552C88.174 6.94865 88.3433 6.98769 88.5659 6.92739C88.8255 6.85705 88.8805 6.73528 88.8805 6.23042C88.8805 5.88072 88.8626 5.76715 88.7945 5.68611C88.6843 5.55475 88.4553 5.49358 88.2625 5.544ZM34.9557 5.6071C34.87 5.64364 34.776 5.7173 34.7469 5.77076C34.7102 5.83801 34.6939 7.10064 34.6939 9.87446V13.881L34.8145 13.9993C35.0084 14.1895 35.5082 14.1252 35.5968 13.8985C35.6536 13.7533 35.6317 5.87605 35.5742 5.77062C35.5271 5.68418 35.2517 5.53368 35.1499 5.5387C35.1288 5.53976 35.0414 5.57051 34.9557 5.6071ZM46.5263 5.60754C46.3284 5.71663 46.2878 5.91134 46.2878 6.74917V7.51329H45.7559C45.2635 7.51329 45.2162 7.52158 45.1173 7.62484C44.9615 7.78759 44.9723 8.05533 45.1399 8.18467C45.2518 8.27106 45.3379 8.2846 45.7745 8.2846H46.2796L46.3009 10.3454C46.3188 12.0697 46.3357 12.4567 46.4046 12.7154C46.5692 13.3339 46.8485 13.6832 47.3663 13.9181C47.5872 14.0184 47.7329 14.0454 48.1359 14.0608C48.7611 14.0848 49.1262 13.9933 49.3733 13.7509C49.523 13.604 49.5392 13.5641 49.5133 13.4053C49.4972 13.3066 49.4366 13.1878 49.3788 13.1414C49.2502 13.0383 48.9843 13.0324 48.795 13.1285C48.5847 13.2352 48.1509 13.2718 47.9278 13.2016C47.5541 13.0841 47.3506 12.7897 47.2714 12.2517C47.2449 12.0716 47.2227 11.1053 47.2222 10.1044L47.2212 8.2846H48.034C48.8315 8.2846 48.8491 8.28238 48.9674 8.16625C49.1263 8.01035 49.13 7.7617 48.9756 7.61935C48.8715 7.52332 48.8042 7.51479 48.0545 7.50249L47.2457 7.48919L47.2212 6.63473C47.1987 5.85411 47.1879 5.77163 47.0954 5.6811C46.9627 5.55104 46.6922 5.51609 46.5263 5.60754ZM83.7942 5.58271C83.5716 5.67122 83.5515 5.75047 83.5257 6.64075L83.5012 7.48919L82.9608 7.51329C82.6636 7.52655 82.3956 7.55321 82.3654 7.57254C82.2468 7.64822 82.1842 7.89143 82.2458 8.0373C82.3297 8.23615 82.4847 8.2846 83.0368 8.2846H83.5257L83.526 10.2249C83.5262 11.2921 83.5478 12.2954 83.5742 12.4545C83.6909 13.16 84.0239 13.658 84.5474 13.9103C84.8106 14.0372 84.8662 14.0453 85.4662 14.0453C86.0412 14.0453 86.1285 14.0338 86.3417 13.9299C86.4719 13.8665 86.6135 13.7622 86.6562 13.6983C86.8302 13.4377 86.6574 13.0571 86.3649 13.0571C86.2878 13.0571 86.0871 13.1027 85.9191 13.1585C85.3177 13.3583 84.8603 13.207 84.6211 12.7292L84.4837 12.4545L84.4686 10.3695L84.4534 8.2846L85.2546 8.28306C85.8068 8.282 86.08 8.26329 86.1337 8.2228C86.2658 8.1233 86.3343 7.94976 86.3007 7.79979C86.2429 7.54106 86.1419 7.51329 85.2588 7.51329H84.4591V6.72102C84.4591 6.28527 84.438 5.87412 84.4121 5.8074C84.332 5.60059 84.0276 5.48986 83.7942 5.58271ZM40.2206 7.44416C39.5329 7.59283 38.9229 7.9689 38.6174 8.43255L38.4521 8.68351L38.4275 8.16625C38.4052 7.69585 38.3924 7.6407 38.287 7.55707C38.1203 7.42488 37.8286 7.43616 37.6565 7.58146L37.5187 7.69778V10.7672V13.8367L37.6565 13.9531C37.8874 14.148 38.309 14.0884 38.4221 13.8449C38.4587 13.7661 38.4767 13.1817 38.4767 12.0689C38.4767 11.0479 38.4974 10.3123 38.5308 10.155C38.773 9.01165 39.9517 8.14957 41.1295 8.25423C41.8135 8.31502 42.5514 8.85219 42.8078 9.47603C42.92 9.74903 42.9229 9.79781 42.9471 11.7959L42.9717 13.8369L43.1096 13.9531C43.2998 14.1137 43.5953 14.1127 43.76 13.9511L43.8806 13.8328L43.8798 11.8179C43.879 9.59284 43.8649 9.4568 43.5727 8.87012C43.2702 8.26252 42.569 7.71195 41.8173 7.4916C41.4245 7.37653 40.6413 7.35325 40.2206 7.44416ZM53.0336 7.41442C51.6688 7.62533 50.6604 8.51358 50.3102 9.81338C50.1801 10.2962 50.1693 11.1051 50.2865 11.5868C50.3317 11.7724 50.469 12.1273 50.5918 12.3755C50.9757 13.1518 51.5899 13.6459 52.5269 13.932C52.842 14.0283 52.9983 14.0445 53.6076 14.044C54.1438 14.0436 54.399 14.0219 54.6393 13.9561C55.1249 13.8233 55.5577 13.6019 55.8238 13.3502C56.0238 13.161 56.064 13.094 56.064 12.9497C56.064 12.814 56.0299 12.7483 55.907 12.6468C55.7185 12.4911 55.5152 12.5039 55.2666 12.6869C55.0192 12.8692 54.6398 13.0418 54.2919 13.1305C53.8406 13.2455 53.0016 13.2106 52.6092 13.0605C52.2221 12.9124 51.7626 12.5592 51.5385 12.2376C51.3497 11.9666 51.1271 11.399 51.178 11.3183C51.1948 11.2915 52.2852 11.2734 53.8832 11.2734C56.8225 11.2734 56.7751 11.278 56.8988 10.9849C56.9769 10.7999 56.9342 10.2666 56.8002 9.75226C56.5105 8.64075 55.6414 7.802 54.4828 7.5157C54.0342 7.40488 53.3878 7.35971 53.0336 7.41442ZM69.4147 7.41529C68.6352 7.5548 68.0024 7.93313 67.6545 8.46759L67.5198 8.67469L67.5028 8.18616C67.4867 7.72 67.4796 7.69229 67.348 7.58136C67.1601 7.42281 66.8826 7.42368 66.707 7.58329L66.5771 7.70154V10.7369C66.5771 12.4064 66.5908 13.8074 66.6076 13.8503C66.6886 14.0575 67.1682 14.1374 67.3699 13.9773L67.4859 13.8853L67.5141 12.0611C67.5448 10.0702 67.5563 9.98302 67.857 9.46302C68.0394 9.14774 68.5489 8.6692 68.8748 8.50712C69.8842 8.00519 71.0486 8.25447 71.6385 9.09881C71.9729 9.57741 71.9809 9.63907 71.9813 11.7115C71.9814 12.8371 72.0014 13.6336 72.0323 13.7426C72.132 14.095 72.5515 14.1919 72.8232 13.9253L72.9701 13.7811L72.9519 11.7198C72.9357 9.89234 72.9235 9.62841 72.8448 9.39336C72.4344 8.16823 71.4423 7.44074 70.1142 7.39109C69.8575 7.3815 69.5428 7.39239 69.4147 7.41529ZM93.0972 7.41968C91.1295 7.68452 89.8568 9.67074 90.3791 11.6618C90.6786 12.8036 91.5883 13.6993 92.7615 14.0078C93.1953 14.1218 94.1394 14.1192 94.5792 14.0028C95.1795 13.844 95.5966 13.6046 96.0589 13.1534C96.7507 12.478 97.0334 11.7856 97.0348 10.7629C97.0357 10.1034 96.9254 9.64403 96.6332 9.09028C96.2293 8.32476 95.4319 7.70704 94.5724 7.49372C94.1989 7.40102 93.4975 7.36583 93.0972 7.41968ZM101.338 7.44392C100.654 7.57726 100.028 7.96591 99.6896 8.46658L99.541 8.68679V8.21687C99.541 7.7617 99.5365 7.74247 99.3974 7.606C99.2911 7.50168 99.2072 7.46509 99.0743 7.46509C98.9414 7.46509 98.8575 7.50168 98.7512 7.606L98.6076 7.7469V10.7672V13.7876L98.7512 13.9285C98.9396 14.1134 99.2254 14.1238 99.4277 13.9531L99.5656 13.8369L99.593 11.9646C99.6102 10.7895 99.6407 10.0348 99.6749 9.93785C99.9574 9.13675 100.639 8.52192 101.48 8.31015C102.643 8.01691 103.789 8.72434 104.011 9.8735C104.039 10.0176 104.061 10.9383 104.061 11.979C104.061 13.7562 104.064 13.8321 104.158 13.9236C104.372 14.1344 104.798 14.1083 104.92 13.8768C105.024 13.6798 105.028 10.0626 104.924 9.58618C104.59 8.03971 103.038 7.11274 101.338 7.44392ZM77.0077 7.51286C75.7775 7.82934 74.9362 8.69875 74.6572 9.94209C74.5418 10.4564 74.5769 11.3457 74.7317 11.8278C75.1695 13.1917 76.1946 13.9963 77.6797 14.142C78.4816 14.2206 79.4368 13.8085 79.8968 13.1852L80.0377 12.9944V13.4023C80.0377 13.7412 80.054 13.8274 80.1343 13.9119C80.3318 14.1199 80.6961 14.1102 80.8708 13.8924C80.9694 13.7693 80.9711 13.7154 80.9711 10.757V7.7469L80.8275 7.606C80.6719 7.45332 80.4593 7.42107 80.2678 7.52115C80.084 7.61723 80.0409 7.71875 80.0393 8.05952L80.0377 8.38878L79.7965 8.12976C79.6638 7.98731 79.4444 7.81155 79.3089 7.73919C78.7188 7.42401 77.7309 7.32688 77.0077 7.51286ZM58.8326 7.51291C58.5617 7.62017 58.5694 7.52438 58.5694 10.7576V13.7394L58.713 13.8803C58.9285 14.0917 59.3221 14.0546 59.4464 13.811C59.48 13.7452 59.5059 13.0533 59.5178 11.9001C59.5379 9.95183 59.5537 9.81685 59.8217 9.29791C60.1363 8.68862 60.7309 8.33623 61.449 8.33358C61.7495 8.33242 61.91 8.19011 61.91 7.92488C61.91 7.62614 61.7946 7.50679 61.4766 7.4768C61.1567 7.44662 60.6845 7.53528 60.357 7.68693C60.1279 7.79304 59.7143 8.17025 59.5671 8.40729C59.5185 8.48553 59.5081 8.43751 59.5057 8.12422C59.503 7.77327 59.4928 7.73707 59.3592 7.606C59.2112 7.46075 59.0405 7.43057 58.8326 7.51291ZM88.0766 7.61323L87.9471 7.71311V10.7729V13.8328L88.0677 13.9511C88.159 14.0407 88.2394 14.069 88.3993 14.0679C88.6264 14.0662 88.7332 14.0097 88.8234 13.8436C88.8651 13.7668 88.8805 12.928 88.8805 10.7441V7.74994L88.7599 7.63164C88.6018 7.47646 88.2655 7.4674 88.0766 7.61323ZM13.0328 8.14123C11.8168 8.39196 10.8 9.15994 10.2543 10.2398C9.75076 11.236 9.73976 12.5045 10.2257 13.5236C10.4998 14.0982 11.0267 14.7207 11.5335 15.0684C11.8123 15.2597 12.3719 15.5109 12.7631 15.6203C13.315 15.7747 14.2169 15.7747 14.7689 15.6203C15.1601 15.5109 15.7196 15.2597 15.9984 15.0684C16.5053 14.7207 17.0322 14.0982 17.3062 13.5236C17.6623 12.7769 17.7618 11.7547 17.5544 10.9744C17.2077 9.67006 16.2096 8.65131 14.8713 8.23562C14.4838 8.11525 13.4229 8.06078 13.0328 8.14123ZM54.3504 8.38367C54.9466 8.55369 55.4551 8.96923 55.7333 9.51387C55.8748 9.79068 56.0148 10.2268 56.0148 10.3904V10.5021H53.5563H51.0977L51.1286 10.3213C51.3928 8.77332 52.7836 7.93689 54.3504 8.38367ZM94.5448 8.40507C95.5066 8.72916 96.1021 9.63868 96.1021 10.7836C96.1021 11.9658 95.3755 12.8861 94.2127 13.1767C93.4232 13.374 92.5361 13.1261 91.9433 12.5424C91.0268 11.6401 90.9931 9.97801 91.8713 9.00115C92.4902 8.3128 93.5619 8.07384 94.5448 8.40507ZM78.423 8.35402C79.2747 8.53118 79.8394 9.07148 79.9843 9.84814C80.06 10.2534 80.0493 11.2841 79.9655 11.6726C79.828 12.3092 79.4383 12.7867 78.8275 13.0672C78.381 13.2722 77.7513 13.3099 77.2531 13.1614C75.9976 12.7872 75.2908 11.4902 75.5893 10.1081C75.7366 9.42599 76.1346 8.89654 76.736 8.58276C77.2645 8.30697 77.8289 8.23046 78.423 8.35402ZM5.63553 10.2294C5.08374 10.4091 4.68449 10.7401 4.44701 11.2148C4.32385 11.4609 4.30911 11.5418 4.30911 11.9724C4.30911 12.3922 4.32566 12.4888 4.43733 12.7196C4.73877 13.3429 5.30156 13.7269 5.97578 13.7694C6.44268 13.7988 6.76652 13.7202 7.13148 13.4887C8.33651 12.7244 8.20116 10.9455 6.89204 10.3415C6.52256 10.1711 5.96689 10.1215 5.63553 10.2294ZM20.8339 10.2619C20.2836 10.3532 19.7241 10.7692 19.4808 11.268C19.2958 11.6474 19.2645 12.2397 19.4084 12.64C19.6758 13.3839 20.3416 13.8401 21.167 13.8452C21.5329 13.8475 21.5996 13.8321 21.9376 13.6682C23.0683 13.1198 23.344 11.7561 22.5117 10.8282C22.2763 10.5658 21.8434 10.3346 21.4575 10.2653C21.1385 10.208 21.1588 10.2081 20.8339 10.2619ZM0.940942 10.7107C0.375986 10.8648 0.00291907 11.3459 2.05971e-05 11.9242C-0.00258311 12.4462 0.241674 12.8282 0.72842 13.0633C1.00731 13.1981 1.07638 13.2122 1.35066 13.1906C2.22767 13.1215 2.77145 12.3187 2.49005 11.5083C2.28318 10.9124 1.56215 10.5413 0.940942 10.7107ZM25.5506 10.9061C24.9618 11.1126 24.6268 11.6008 24.6863 12.166C24.7198 12.4841 24.8603 12.7566 25.0955 12.9592C25.3451 13.1742 25.5622 13.2547 25.897 13.2563C26.6072 13.2596 27.129 12.7573 27.1279 12.0714C27.1265 11.2417 26.3113 10.6394 25.5506 10.9061ZM22.5599 15.5033C22.4217 15.5511 22.2362 15.6806 22.0642 15.8494C21.7134 16.1936 21.6041 16.4837 21.6368 16.9833C21.7228 18.2981 23.3329 18.8252 24.2397 17.8355C24.8992 17.1157 24.6727 16.0053 23.7769 15.5661C23.5236 15.4419 23.4236 15.4198 23.129 15.423C22.9375 15.4251 22.6813 15.4612 22.5599 15.5033ZM3.85385 15.8853C3.55236 15.99 3.14186 16.3766 3.00622 16.6837C2.85678 17.022 2.85138 17.5204 2.99375 17.8354C3.13042 18.1379 3.41658 18.4374 3.7165 18.5919C3.92907 18.7014 4.02589 18.72 4.3828 18.72C4.73995 18.72 4.83594 18.7015 5.04601 18.5923C5.98983 18.1015 6.17056 16.9146 5.41063 16.198C5.0268 15.8361 4.37342 15.7048 3.85385 15.8853ZM44.4263 16.16C44.3865 16.2071 44.3742 16.7053 44.3835 17.9023C44.3949 19.3838 44.4056 19.5843 44.4757 19.6277C44.5193 19.6546 44.5911 19.6631 44.6354 19.6465C44.7077 19.6193 44.7157 19.4454 44.7157 17.913C44.7157 16.1943 44.706 16.0941 44.5399 16.0941C44.5082 16.0941 44.457 16.1238 44.4263 16.16ZM49.4908 16.1519C49.4472 16.1947 49.4319 16.6526 49.4319 17.913C49.4319 19.4454 49.4399 19.6193 49.5122 19.6465C49.5565 19.6631 49.6283 19.6547 49.6719 19.6278C49.7374 19.5874 49.7555 19.4498 49.7758 18.8368C49.798 18.1682 49.8121 18.0748 49.9175 17.8941C50.0765 17.6216 50.2846 17.4809 50.568 17.4542C50.8691 17.4258 51.0095 17.4624 51.1984 17.6183C51.4825 17.8529 51.5155 17.9701 51.5434 18.8419C51.5678 19.6023 51.5734 19.6379 51.6715 19.6517C51.8739 19.68 51.8976 19.5729 51.8797 18.7115C51.8647 17.9957 51.8506 17.8794 51.7576 17.7084C51.5221 17.275 51.2181 17.0856 50.7583 17.0856C50.3914 17.0856 50.2241 17.1568 49.9565 17.4272L49.7758 17.6098V16.9098C49.7758 16.2208 49.749 16.0941 49.6038 16.0941C49.5741 16.0941 49.5233 16.1201 49.4908 16.1519ZM59.4144 16.1519C59.3708 16.1947 59.3554 16.6455 59.3554 17.8815C59.3554 19.6564 59.3605 19.6951 59.5864 19.6528C59.6655 19.638 59.6777 19.5576 59.7026 18.8896C59.7321 18.0988 59.7705 17.9392 59.985 17.7168C60.1728 17.522 60.3495 17.4439 60.6025 17.4439C60.8838 17.4439 61.0467 17.5056 61.205 17.6724C61.4108 17.889 61.4382 18.0087 61.466 18.8127C61.4879 19.4465 61.5062 19.5873 61.5717 19.6278C61.6154 19.6547 61.6872 19.6631 61.7314 19.6465C61.8013 19.6202 61.8118 19.5131 61.8118 18.8253C61.8118 17.7815 61.7099 17.4907 61.2519 17.2273C60.8013 16.9682 60.329 17.0237 59.9392 17.3816L59.6993 17.6017V16.9058C59.6993 16.2208 59.6725 16.0941 59.5274 16.0941C59.4977 16.0941 59.4468 16.1201 59.4144 16.1519ZM69.1415 16.1519C69.0978 16.1947 69.0825 16.6526 69.0825 17.913C69.0825 19.4454 69.0906 19.6193 69.1629 19.6465C69.2071 19.6631 69.2789 19.6546 69.3225 19.6277C69.3926 19.5843 69.4034 19.3838 69.4147 17.9023C69.4277 16.2227 69.4166 16.0941 69.2583 16.0941C69.2264 16.0941 69.1739 16.1201 69.1415 16.1519ZM34.7166 16.202C34.7034 16.2357 34.6984 17.0225 34.7055 17.9503L34.7185 19.6373H35.9221H37.1257V19.4927V19.348L36.0817 19.335L35.0378 19.322V18.6734V18.0248L35.8308 18.0115C36.508 18.0002 36.6314 17.9865 36.6754 17.9179C36.7128 17.8597 36.7092 17.8166 36.6624 17.7613C36.6084 17.6975 36.4695 17.6849 35.8178 17.6849H35.0378V17.0833V16.4817L36.0817 16.4687L37.1257 16.4556V16.311V16.1664L35.9331 16.1535C35.003 16.1434 34.7353 16.1541 34.7166 16.202ZM45.7351 16.339C45.631 16.3985 45.6223 16.5907 45.7201 16.6704C45.7592 16.7022 45.842 16.7211 45.9043 16.7124C46.0528 16.6918 46.0932 16.4428 45.9633 16.3495C45.8601 16.2755 45.8472 16.2749 45.7351 16.339ZM9.25724 16.6684C8.74632 16.8543 8.40101 17.1809 8.15705 17.709C7.98751 18.0759 7.99626 18.7167 8.17596 19.0951C8.58165 19.9496 9.51648 20.3714 10.4082 20.1025C12.0202 19.6163 12.1648 17.4227 10.6305 16.7311C10.25 16.5596 9.6335 16.5314 9.25724 16.6684ZM16.8232 16.6731C16.4882 16.7418 16.0375 17.0054 15.7997 17.272C15.0124 18.1543 15.2902 19.5344 16.3623 20.0675C16.8601 20.315 17.445 20.3265 17.9688 20.0992C18.2753 19.9661 18.6849 19.5689 18.8545 19.2404C18.9859 18.9857 18.998 18.92 18.998 18.4562C18.998 17.9999 18.9844 17.9231 18.8609 17.6763C18.6823 17.3193 18.2304 16.9062 17.8764 16.7762C17.556 16.6585 17.1081 16.6147 16.8232 16.6731ZM38.805 17.1252C38.6117 17.1958 38.4901 17.2836 38.2967 17.4921L38.185 17.6126L38.1835 17.4174C38.1826 17.31 38.1554 17.1961 38.1229 17.1643C38.0397 17.0826 37.9031 17.0925 37.8678 17.1827C37.8154 17.3167 37.8344 19.4683 37.8888 19.5682C37.9168 19.6195 37.9788 19.6614 38.0264 19.6614C38.207 19.6614 38.231 19.5668 38.231 18.8548C38.231 18.1188 38.2756 17.9197 38.4913 17.6931C38.8134 17.3546 39.4121 17.3494 39.6942 17.6827C39.8415 17.8567 39.8742 18.0329 39.8995 18.7886C39.9214 19.4447 39.9393 19.5872 40.0052 19.6278C40.0488 19.6547 40.1206 19.6631 40.1648 19.6465C40.2348 19.6201 40.2452 19.5113 40.2452 18.8012C40.2452 17.9396 40.2066 17.729 39.998 17.4522C39.7615 17.1382 39.1946 16.9828 38.805 17.1252ZM41.9155 17.1033C41.2842 17.2924 40.9143 17.7657 40.9145 18.3839C40.9146 18.9258 41.1627 19.3079 41.6887 19.5764C41.9965 19.7335 42.5079 19.7236 42.841 19.5541C43.0835 19.4306 43.0958 19.429 43.1433 19.5161C43.2093 19.6371 43.206 19.8695 43.1361 20.02C43.0284 20.2519 42.8723 20.3065 42.2282 20.3374C41.7857 20.3587 41.599 20.3873 41.5036 20.4487C41.2365 20.6205 41.431 20.8922 41.7171 20.747C41.8244 20.6925 41.9992 20.6745 42.3711 20.6794C42.926 20.6867 43.0647 20.6451 43.3002 20.4008C43.3728 20.3256 43.4557 20.2029 43.4844 20.1283C43.5673 19.913 43.5474 19.5097 43.4442 19.3109C43.3534 19.1363 43.3535 19.1292 43.4456 18.9465C43.5869 18.6661 43.6117 18.3273 43.5147 18C43.3242 17.3566 42.5391 16.9165 41.9155 17.1033ZM47.344 17.1277C46.9893 17.2561 46.8433 17.4892 46.8766 17.8744C46.8997 18.1426 47.1593 18.3362 47.7508 18.5262C48.0684 18.6283 48.302 18.8121 48.302 18.9601C48.302 19.1108 48.0884 19.3073 47.8836 19.345C47.6465 19.3887 47.3404 19.2963 47.1591 19.1262C46.8495 18.8359 46.6438 19.073 46.9289 19.3916C47.2205 19.7176 47.8891 19.8005 48.2859 19.5599C48.7726 19.2647 48.7623 18.6124 48.267 18.3684C48.1647 18.318 47.929 18.2277 47.7433 18.1678C47.3631 18.045 47.2212 17.9335 47.2212 17.7572C47.2212 17.5861 47.3762 17.4559 47.6229 17.4197C47.853 17.386 48.0344 17.4359 48.2634 17.5959C48.3985 17.6903 48.4143 17.6918 48.4899 17.6176C48.5632 17.5457 48.5639 17.525 48.4975 17.4089C48.3328 17.1209 47.7531 16.9797 47.344 17.1277ZM54.4273 17.1255C53.9706 17.2916 53.779 17.7028 53.9958 18.0515C54.113 18.2402 54.3254 18.3663 54.7615 18.5062C55.1021 18.6154 55.3762 18.8144 55.3762 18.9522C55.3762 19.0813 55.1756 19.2731 54.9805 19.3304C54.7322 19.4034 54.4597 19.3297 54.2223 19.1251C54.0228 18.9532 53.8842 18.9579 53.8629 19.1373C53.8314 19.4032 54.3518 19.7096 54.8351 19.7096C54.9329 19.7096 55.1286 19.6531 55.27 19.584C55.6801 19.3834 55.8361 18.9648 55.6252 18.6306C55.508 18.4449 55.3294 18.3394 54.8757 18.188C54.3815 18.0231 54.2954 17.9592 54.2954 17.7572C54.2954 17.6348 54.3266 17.5707 54.413 17.5151C54.675 17.3466 55.1136 17.3837 55.3042 17.5903C55.4096 17.7046 55.4445 17.7074 55.5443 17.6095C55.6122 17.5429 55.6128 17.5185 55.55 17.3991C55.4079 17.1296 54.8137 16.9848 54.4273 17.1255ZM57.175 17.1372C56.8327 17.2404 56.4424 17.6315 56.3382 17.9758C56.2954 18.1171 56.2605 18.3008 56.2605 18.3839C56.2605 19.0711 56.9117 19.7096 57.6126 19.7096C58.0263 19.7096 58.5694 19.4214 58.5694 19.2019C58.5694 19.0143 58.37 18.9952 58.1478 19.1615C57.9996 19.2724 57.9064 19.3005 57.6414 19.3142C57.3499 19.3292 57.2935 19.3163 57.0904 19.1882C56.6456 18.9079 56.5129 18.307 56.7983 17.8653C56.9868 17.5738 57.2417 17.4439 57.6256 17.4439C57.8672 17.4439 57.952 17.4687 58.1491 17.5967C58.3295 17.714 58.4031 17.7381 58.4646 17.7003C58.6985 17.5565 58.46 17.2627 57.9989 17.1265C57.7107 17.0414 57.4832 17.0443 57.175 17.1372ZM63.4509 17.1107C63.1823 17.1871 62.8282 17.4578 62.6729 17.7053C62.5473 17.9055 62.5214 18.0014 62.5066 18.3209C62.4912 18.6531 62.505 18.7313 62.6196 18.9612C62.7598 19.2424 62.9337 19.4112 63.2553 19.5782C63.5412 19.7267 64.1112 19.7265 64.3975 19.5778C65.4893 19.0107 65.3638 17.4686 64.1982 17.1289C63.929 17.0505 63.6836 17.0445 63.4509 17.1107ZM66.6204 17.1248C66.0116 17.3383 65.6866 17.7803 65.6866 18.395C65.6866 19.5291 67.0452 20.121 67.8915 19.3557C68.2262 19.0529 68.3193 18.8413 68.3193 18.3839C68.3193 17.9253 68.2262 17.715 67.8877 17.4088C67.5446 17.0984 67.0266 16.9824 66.6204 17.1248ZM45.7 17.1997C45.6692 17.2561 45.6491 17.7241 45.6491 18.3839C45.6491 19.4977 45.6732 19.6614 45.8375 19.6614C46.0301 19.6614 46.0421 19.5862 46.0421 18.3839C46.0421 17.5446 46.0258 17.2061 45.9832 17.1643C45.8947 17.0774 45.7573 17.0946 45.7 17.1997ZM42.6912 17.5352C43.032 17.7058 43.1928 17.9819 43.1928 18.3962C43.1928 18.9269 42.788 19.3239 42.2471 19.3239C41.9545 19.3239 41.7831 19.2583 41.5781 19.0679C41.3677 18.8725 41.2769 18.6641 41.2769 18.3766C41.2769 17.8411 41.6793 17.4439 42.2219 17.4439C42.4066 17.4439 42.5739 17.4764 42.6912 17.5352ZM64.3882 17.6074C64.851 17.9537 64.9291 18.5143 64.5785 18.9749C64.3879 19.2253 64.1126 19.3377 63.7459 19.3148C63.493 19.299 63.4027 19.269 63.2505 19.1503C62.7716 18.7763 62.7178 18.1443 63.1285 17.7152C63.3309 17.5037 63.514 17.4407 63.8805 17.4565C64.1488 17.4679 64.2371 17.4942 64.3882 17.6074ZM67.4434 17.5225C67.8302 17.7026 68.0624 18.1983 67.9516 18.6071C67.8209 19.0889 67.4519 19.3468 66.9391 19.3148C66.6862 19.299 66.5959 19.269 66.4438 19.1503C66.0701 18.8586 65.9352 18.3566 66.1304 17.9843C66.2406 17.774 66.4534 17.5653 66.6262 17.4979C66.8193 17.4226 67.257 17.4357 67.4434 17.5225ZM13.3238 21.1016C12.7044 21.3017 12.2753 21.8026 12.2117 22.3999C12.1217 23.2454 12.8079 24 13.6668 24C14.1456 24 14.4276 23.8882 14.7521 23.5697C15.0767 23.2512 15.1906 22.9745 15.1906 22.5047C15.1906 21.9398 14.8434 21.4215 14.3097 21.1898C14.0689 21.0853 13.5249 21.0366 13.3238 21.1016ZM7.16891 21.2715C6.43388 21.4688 6.0615 22.2815 6.40175 22.9459C6.77595 23.6768 7.75215 23.8297 8.34289 23.25C9.20187 22.4072 8.34132 20.9568 7.16891 21.2715ZM19.508 21.3188C19.0418 21.4823 18.7184 21.8507 18.6504 22.2958C18.5798 22.7575 18.8858 23.2928 19.3384 23.4996C19.8193 23.7193 20.2934 23.6342 20.6751 23.2595C20.8378 23.0999 20.947 22.9432 20.9819 22.8189C21.1681 22.157 20.822 21.511 20.1803 21.3231C19.888 21.2376 19.7423 21.2366 19.508 21.3188Z" fill="#23262F"/>
</svg>
