<svg width="170" height="39" viewBox="0 0 170 39" fill="none" xmlns="http://www.w3.org/2000/svg">
    <path fill-rule="evenodd" clip-rule="evenodd" d="M21.2134 0.129461C19.8242 0.60261 19.1995 2.14841 19.8603 3.4784C20.0866 3.93424 20.4393 4.27876 20.9577 4.55074C21.2344 4.6959 21.4195 4.72684 22.0094 4.72676C22.6307 4.72661 22.7778 4.69911 23.1229 4.51886C23.6476 4.24484 23.982 3.88927 24.2419 3.32917C24.6625 2.42259 24.388 1.22507 23.609 0.568299C22.9666 0.0267623 22.0227 -0.146203 21.2134 0.129461ZM31.3551 0.616554C30.4164 1.04756 29.9067 2.03357 30.1546 2.93859C30.555 4.40049 32.3265 4.95268 33.4609 3.96918C33.9422 3.55196 34.1575 3.08351 34.1539 2.46168C34.1492 1.66594 33.737 1.01693 32.9966 0.639898C32.5912 0.433404 31.7792 0.421811 31.3551 0.616554ZM11.606 0.650003C10.4475 1.05704 9.91496 2.25675 10.4288 3.30215C11.0161 4.49708 12.7056 4.72128 13.596 3.7225C14.529 2.67593 14.0589 1.04897 12.7088 0.652275C12.2317 0.512054 12.0001 0.511584 11.606 0.650003ZM27.3726 6.2797C26.6127 6.4912 25.8307 7.11914 25.4858 7.79495C24.7409 9.25411 25.3651 11.0591 26.8655 11.7846C27.2923 11.9909 27.416 12.0133 28.1338 12.0133C28.8289 12.0133 28.9862 11.9869 29.3806 11.8049C30.013 11.5129 30.5118 11.0317 30.8183 10.4182C31.0577 9.93877 31.0768 9.84281 31.0768 9.11601C31.0768 8.42947 31.0502 8.2757 30.8644 7.88527C30.4109 6.93255 29.3765 6.25408 28.3017 6.20457C27.9907 6.19024 27.5725 6.22408 27.3726 6.2797ZM15.0342 6.40206C14.1971 6.67412 13.6171 7.21127 13.2043 8.09646C13.0563 8.41365 13.0217 8.62233 13.0226 9.19317C13.0235 9.81719 13.0517 9.95671 13.2687 10.4074C13.58 11.054 14.074 11.5408 14.7316 11.8491C15.1993 12.0685 15.3208 12.0914 16.0042 12.0888C16.6719 12.0863 16.8152 12.0596 17.2353 11.8593C17.8402 11.5708 18.4199 11.0009 18.6936 10.4259C18.8811 10.0318 18.9074 9.87986 18.9074 9.19152C18.9074 8.46237 18.8888 8.36931 18.646 7.88355C18.3414 7.27409 17.8415 6.79804 17.1973 6.50389C16.6091 6.2352 15.6818 6.19157 15.0342 6.40206ZM35.9964 8.16469C33.9117 8.83674 33.7146 11.6929 35.6893 12.613C36.2514 12.8749 36.9817 12.9133 37.5803 12.7124C38.0636 12.5503 38.6278 12.0524 38.8944 11.5529C39.0809 11.2035 39.1087 11.0603 39.1088 10.4465C39.1089 9.86239 39.0778 9.68386 38.9273 9.40538C38.6776 8.94335 38.1723 8.46472 37.7313 8.27264C37.2729 8.07296 36.4415 8.02118 35.9964 8.16469ZM5.99627 9.00289C5.13415 9.42716 4.67593 10.158 4.6737 11.1124C4.67148 12.0794 5.13988 12.8352 6.02219 13.2887C6.5582 13.5642 7.50566 13.5851 8.06012 13.3335C8.55994 13.1068 9.01029 12.6897 9.24612 12.235C9.41402 11.9113 9.44234 11.7491 9.44234 11.1124C9.44234 10.4426 9.42055 10.3318 9.22488 10.0039C8.93831 9.52382 8.36937 9.039 7.9125 8.8857C7.71031 8.81786 7.30642 8.76232 7.01499 8.76232C6.58262 8.76232 6.39507 8.80658 5.99627 9.00289ZM142.901 9.009C142.444 9.12901 142.351 9.3189 142.351 10.1351C142.351 10.7913 142.369 10.8843 142.536 11.059C142.758 11.2916 143.032 11.355 143.392 11.257C143.813 11.1427 143.902 10.9448 143.902 10.1244C143.902 9.55618 143.873 9.37162 143.763 9.23993C143.584 9.02647 143.213 8.92706 142.901 9.009ZM56.5949 9.11154C56.4562 9.17092 56.3041 9.29062 56.2569 9.37749C56.1975 9.48677 56.1711 11.5385 56.1711 16.046V22.5566L56.3663 22.7488C56.6802 23.058 57.4894 22.9534 57.6329 22.5851C57.7249 22.3491 57.6895 9.54858 57.5964 9.37726C57.52 9.2368 57.0742 8.99223 56.9094 9.00038C56.8752 9.00211 56.7337 9.05208 56.5949 9.11154ZM75.3283 9.11225C75.008 9.28952 74.9421 9.60592 74.9421 10.9674V12.2091H74.081C73.2838 12.2091 73.2071 12.2226 73.047 12.3904C72.7948 12.6548 72.8123 13.0899 73.0837 13.3001C73.2648 13.4405 73.4042 13.4625 74.1111 13.4625H74.9288L74.9634 16.8113C74.9924 19.6133 75.0197 20.2422 75.1313 20.6626C75.3978 21.6676 75.85 22.2352 76.6883 22.617C77.0459 22.7798 77.2818 22.8237 77.9343 22.8488C78.9465 22.8878 79.5377 22.7392 79.9377 22.3452C80.1801 22.1065 80.2063 22.0416 80.1644 21.7836C80.1383 21.6232 80.0403 21.4302 79.9467 21.3548C79.7384 21.1873 79.308 21.1777 79.0014 21.3338C78.661 21.5072 77.9586 21.5666 77.5974 21.4527C76.9924 21.2616 76.6629 20.7832 76.5346 19.9091C76.4917 19.6163 76.4558 18.0461 76.4549 16.4197L76.4533 13.4625H77.7693C79.0605 13.4625 79.089 13.4589 79.2805 13.2702C79.5378 13.0168 79.5439 12.6128 79.2939 12.3814C79.1253 12.2254 79.0164 12.2115 77.8026 12.1916L76.4931 12.1699L76.4533 10.7814C76.417 9.51293 76.3994 9.3789 76.2497 9.23179C76.0348 9.02044 75.5969 8.96364 75.3283 9.11225ZM135.667 9.0719C135.306 9.21573 135.274 9.34451 135.232 10.7912L135.192 12.1699L134.317 12.2091C133.836 12.2306 133.402 12.274 133.353 12.3054C133.161 12.4284 133.06 12.8236 133.16 13.0606C133.296 13.3837 133.547 13.4625 134.44 13.4625H135.232L135.233 16.6155C135.233 18.3496 135.268 19.98 135.311 20.2385C135.5 21.385 136.039 22.1943 136.886 22.6043C137.312 22.8104 137.402 22.8236 138.374 22.8236C139.305 22.8236 139.446 22.8049 139.791 22.6362C140.002 22.533 140.231 22.3636 140.3 22.2598C140.582 21.8362 140.302 21.2177 139.829 21.2177C139.704 21.2177 139.379 21.2919 139.107 21.3826C138.133 21.7073 137.393 21.4614 137.006 20.6849L136.783 20.2385L136.759 16.8505L136.734 13.4625L138.031 13.46C138.925 13.4582 139.368 13.4279 139.455 13.3621C139.668 13.2004 139.779 12.9184 139.725 12.6747C139.631 12.2542 139.468 12.2091 138.038 12.2091H136.743V10.9216C136.743 10.2136 136.709 9.54544 136.667 9.43703C136.538 9.10096 136.045 8.92103 135.667 9.0719ZM65.1191 12.0968C64.0057 12.3384 63.0181 12.9495 62.5235 13.7029L62.2558 14.1107L62.216 13.2702C62.1798 12.5058 62.1592 12.4161 61.9884 12.2802C61.7186 12.0654 61.2463 12.0838 60.9677 12.3199L60.7445 12.5089V17.4968V22.4847L60.9677 22.6738C61.3415 22.9905 62.0241 22.8937 62.2072 22.498C62.2665 22.3699 62.2955 21.4203 62.2955 19.612C62.2955 17.9529 62.3292 16.7574 62.3832 16.5018C62.7753 14.6439 64.6837 13.2431 66.5906 13.4131C67.6981 13.5119 68.8928 14.3848 69.3079 15.3985C69.4895 15.8422 69.4943 15.9214 69.5334 19.1683L69.5733 22.4849L69.7965 22.6738C70.1045 22.9347 70.5829 22.9331 70.8495 22.6705L71.0447 22.4782L71.0435 19.2041C71.0423 15.5884 71.0193 15.3673 70.5464 14.4139C70.0566 13.4266 68.9213 12.5319 67.7041 12.1738C67.0683 11.9869 65.8002 11.949 65.1191 12.0968ZM85.8639 12.0484C83.6543 12.3912 82.0216 13.8346 81.4546 15.9467C81.2439 16.7313 81.2264 18.0458 81.4162 18.8285C81.4894 19.1301 81.7118 19.7068 81.9105 20.1101C82.5321 21.3717 83.5265 22.1746 85.0435 22.6395C85.5538 22.796 85.8067 22.8223 86.7933 22.8215C87.6613 22.8209 88.0745 22.7855 88.4636 22.6787C89.2498 22.4629 89.9505 22.1031 90.3815 21.694C90.7052 21.3866 90.7702 21.2777 90.7702 21.0433C90.7702 20.8227 90.7151 20.716 90.5161 20.5511C90.2109 20.2981 89.8817 20.3188 89.4793 20.6163C89.0788 20.9124 88.4645 21.1929 87.9012 21.337C87.1705 21.524 85.8121 21.4672 85.1768 21.2233C84.5501 20.9827 83.8061 20.4088 83.4432 19.886C83.1376 19.4458 82.7773 18.5234 82.8596 18.3922C82.8869 18.3487 84.6522 18.3193 87.2395 18.3193C91.9983 18.3193 91.9216 18.3267 92.1219 17.8504C92.2484 17.5498 92.1793 16.6833 91.9622 15.8474C91.4932 14.0412 90.0861 12.6783 88.2102 12.213C87.484 12.0329 86.4374 11.9595 85.8639 12.0484ZM112.386 12.0498C111.124 12.2765 110.099 12.8913 109.536 13.7598L109.318 14.0964L109.29 13.3025C109.264 12.545 109.253 12.5 109.04 12.3197C108.735 12.0621 108.286 12.0635 108.002 12.3228L107.791 12.515V17.4474C107.791 20.1604 107.814 22.437 107.841 22.5068C107.972 22.8434 108.749 22.9733 109.075 22.7132L109.263 22.5635L109.309 19.5993C109.358 16.3641 109.377 16.2224 109.864 15.3774C110.159 14.8651 110.984 14.0874 111.512 13.8241C113.146 13.0084 115.031 13.4135 115.986 14.7856C116.528 15.5633 116.541 15.6635 116.541 19.0312C116.541 20.8602 116.574 22.1546 116.624 22.3318C116.785 22.9043 117.464 23.0618 117.904 22.6286L118.142 22.3943L118.113 19.0447C118.086 16.0751 118.067 15.6462 117.939 15.2642C117.275 13.2734 115.668 12.0912 113.518 12.0105C113.103 11.9949 112.593 12.0126 112.386 12.0498ZM150.729 12.057C147.543 12.4873 145.482 15.7149 146.328 18.9505C146.813 20.8058 148.286 22.2614 150.185 22.7626C150.888 22.9479 152.416 22.9437 153.128 22.7546C154.1 22.4966 154.775 22.1074 155.524 21.3742C156.644 20.2768 157.102 19.1516 157.104 17.4897C157.105 16.4181 156.927 15.6715 156.454 14.7717C155.8 13.5277 154.509 12.5239 153.117 12.1773C152.513 12.0267 151.377 11.9695 150.729 12.057ZM164.072 12.0964C162.964 12.3131 161.949 12.9446 161.402 13.7582L161.162 14.116V13.3524C161.162 12.6128 161.154 12.5815 160.929 12.3597C160.757 12.1902 160.621 12.1308 160.406 12.1308C160.191 12.1308 160.055 12.1902 159.883 12.3597L159.65 12.5887V17.4968V22.4048L159.883 22.6338C160.188 22.9342 160.651 22.9512 160.978 22.6738L161.201 22.4849L161.246 19.4425C161.274 17.533 161.323 16.3066 161.378 16.149C161.836 14.8472 162.94 13.8481 164.3 13.504C166.185 13.0275 168.039 14.1771 168.399 16.0444C168.444 16.2787 168.479 17.7748 168.479 19.4658C168.479 22.3538 168.485 22.4771 168.636 22.6258C168.984 22.9684 169.673 22.9259 169.871 22.5498C170.039 22.2297 170.045 16.3517 169.878 15.5775C169.336 13.0645 166.823 11.5582 164.072 12.0964ZM124.679 12.2084C122.687 12.7227 121.325 14.1355 120.874 16.1559C120.687 16.9916 120.744 18.4368 120.994 19.2202C121.703 21.4365 123.363 22.744 125.767 22.9808C127.065 23.1085 128.612 22.4388 129.357 21.426L129.585 21.1159V21.7787C129.585 22.3295 129.611 22.4695 129.741 22.6069C130.061 22.9448 130.651 22.9291 130.934 22.5751C131.093 22.3751 131.096 22.2876 131.096 17.4802V12.5887L130.864 12.3597C130.612 12.1117 130.268 12.0592 129.957 12.2219C129.66 12.378 129.59 12.543 129.587 13.0967L129.585 13.6318L129.194 13.2109C128.98 12.9794 128.624 12.6938 128.405 12.5762C127.45 12.064 125.85 11.9062 124.679 12.2084ZM95.2528 12.2085C94.8141 12.3828 94.8267 12.2271 94.8267 17.481V22.3265L95.0592 22.5555C95.408 22.8991 96.0453 22.8387 96.2466 22.4429C96.301 22.336 96.3429 21.2116 96.3622 19.3377C96.3947 16.1717 96.4202 15.9524 96.8541 15.1091C97.3635 14.119 98.3263 13.5464 99.4888 13.5421C99.9754 13.5402 100.235 13.3089 100.235 12.8779C100.235 12.3925 100.048 12.1985 99.5335 12.1498C99.0157 12.1008 98.251 12.2448 97.7209 12.4913C97.35 12.6637 96.6802 13.2767 96.442 13.6618C96.3634 13.789 96.3465 13.711 96.3426 13.2019C96.3382 12.6316 96.3217 12.5727 96.1054 12.3597C95.8657 12.1237 95.5894 12.0747 95.2528 12.2085ZM142.6 12.3715L142.391 12.5338V17.506V22.4782L142.586 22.6705C142.734 22.8162 142.864 22.8622 143.123 22.8603C143.49 22.8576 143.663 22.7658 143.809 22.4959C143.877 22.3711 143.902 21.008 143.902 17.4592V12.5937L143.707 12.4014C143.451 12.1493 142.906 12.1345 142.6 12.3715ZM21.1007 13.2295C19.1319 13.6369 17.4857 14.8849 16.6021 16.6396C15.7869 18.2584 15.7691 20.3198 16.5559 21.9759C16.9997 22.9096 17.8527 23.9211 18.6733 24.4862C19.1247 24.7971 20.0306 25.2052 20.664 25.383C21.5577 25.6339 23.0179 25.6339 23.9115 25.383C24.5449 25.2052 25.4509 24.7971 25.9022 24.4862C26.7228 23.9211 27.5759 22.9096 28.0196 21.9759C28.596 20.7625 28.7572 19.1013 28.4214 17.8334C27.8601 15.7139 26.2442 14.0584 24.0774 13.3829C23.4499 13.1873 21.7323 13.0988 21.1007 13.2295ZM87.9959 13.6235C88.9612 13.8997 89.7844 14.575 90.2349 15.46C90.4639 15.9098 90.6907 16.6186 90.6907 16.8843V17.0659H86.7102H82.7296L82.7796 16.7722C83.2073 14.2566 85.4591 12.8974 87.9959 13.6235ZM153.072 13.6582C154.63 14.1849 155.594 15.6629 155.594 17.5233C155.594 19.4444 154.417 20.94 152.535 21.4122C151.257 21.7328 149.82 21.3299 148.861 20.3814C147.377 18.9152 147.322 16.2143 148.744 14.6269C149.746 13.5083 151.481 13.12 153.072 13.6582ZM126.971 13.5753C128.35 13.8632 129.264 14.7412 129.498 16.0032C129.621 16.6618 129.604 18.3367 129.468 18.9679C129.245 20.0024 128.614 20.7783 127.625 21.2342C126.903 21.5673 125.883 21.6286 125.077 21.3873C123.044 20.7792 121.899 18.6715 122.383 16.4256C122.621 15.3172 123.266 14.4569 124.239 13.947C125.095 13.4988 126.009 13.3745 126.971 13.5753ZM9.12419 16.6228C8.23081 16.9148 7.58441 17.4526 7.19992 18.224C7.00052 18.624 6.97665 18.7554 6.97665 19.4552C6.97665 20.1373 7.00346 20.2942 7.18425 20.6694C7.6723 21.6823 8.58349 22.3063 9.67507 22.3753C10.431 22.4231 10.9553 22.2952 11.5462 21.9191C13.4972 20.6771 13.2781 17.7865 11.1585 16.805C10.5603 16.528 9.66067 16.4474 9.12419 16.6228ZM33.731 16.6756C32.8402 16.8239 31.9343 17.5 31.5404 18.3105C31.2408 18.927 31.1902 19.8895 31.4231 20.5401C31.856 21.7488 32.9341 22.4902 34.2705 22.4985C34.8628 22.5021 34.9708 22.4772 35.518 22.2109C37.3487 21.3197 37.795 19.1036 36.4475 17.5959C36.0664 17.1695 35.3655 16.7938 34.7408 16.6811C34.2243 16.5879 34.2571 16.5881 33.731 16.6756ZM1.52343 17.4049C0.60874 17.6553 0.00472611 18.4371 3.33478e-05 19.3768C-0.00418218 20.2251 0.391282 20.8459 1.17935 21.2279C1.63089 21.4469 1.74272 21.4698 2.18678 21.4347C3.6067 21.3225 4.48711 20.0179 4.03151 18.701C3.69657 17.7327 2.52919 17.1295 1.52343 17.4049ZM41.3676 17.7225C40.4143 18.0579 39.872 18.8514 39.9683 19.7698C40.0225 20.2867 40.2501 20.7295 40.6307 21.0587C41.0349 21.4081 41.3864 21.5389 41.9285 21.5415C43.0783 21.5469 43.9232 20.7306 43.9214 19.6161C43.9192 18.2677 42.5993 17.289 41.3676 17.7225ZM36.5255 25.1928C36.3018 25.2706 36.0015 25.481 35.723 25.7553C35.1551 26.3147 34.9781 26.7859 35.031 27.5979C35.1702 29.7343 37.7771 30.5909 39.2453 28.9826C40.313 27.8131 39.9463 26.0087 38.4959 25.2949C38.0858 25.093 37.9239 25.0571 37.447 25.0624C37.1369 25.0658 36.7221 25.1245 36.5255 25.1928ZM6.23957 25.8135C5.75145 25.9837 5.08682 26.612 4.86722 27.111C4.62526 27.6608 4.61651 28.4707 4.84702 28.9826C5.06829 29.474 5.5316 29.9607 6.01718 30.2118C6.36135 30.3898 6.51812 30.42 7.09596 30.42C7.6742 30.42 7.82962 30.3899 8.16973 30.2124C9.69782 29.4149 9.99044 27.4862 8.76006 26.3217C8.13863 25.7336 7.08077 25.5203 6.23957 25.8135ZM71.9283 26.2601C71.8638 26.3366 71.844 27.1461 71.859 29.0913C71.8774 31.4986 71.8948 31.8245 72.0083 31.895C72.0789 31.9388 72.1952 31.9526 72.2668 31.9256C72.3838 31.8813 72.3969 31.5987 72.3969 29.1086C72.3969 26.3157 72.3812 26.1529 72.1123 26.1529C72.0608 26.1529 71.978 26.2012 71.9283 26.2601ZM80.128 26.2469C80.0574 26.3165 80.0326 27.0604 80.0326 29.1086C80.0326 31.5987 80.0456 31.8813 80.1627 31.9256C80.2343 31.9526 80.3506 31.9389 80.4212 31.8952C80.5272 31.8296 80.5565 31.6059 80.5894 30.6098C80.6254 29.5233 80.6481 29.3716 80.8188 29.0779C81.0763 28.6351 81.4132 28.4065 81.872 28.3631C82.3595 28.3169 82.5869 28.3764 82.8927 28.6298C83.3526 29.0109 83.4061 29.2013 83.4513 30.6181C83.4907 31.8538 83.4998 31.9116 83.6586 31.9339C83.9863 31.9801 84.0248 31.806 83.9956 30.4062C83.9715 29.2429 83.9486 29.0541 83.7981 28.7761C83.4167 28.0719 82.9246 27.764 82.1801 27.764C81.586 27.764 81.3153 27.8798 80.882 28.3192L80.5893 28.6159V27.4784C80.5893 26.3588 80.5461 26.1529 80.3109 26.1529C80.2628 26.1529 80.1805 26.1952 80.128 26.2469ZM96.1947 26.2469C96.1242 26.3164 96.0993 27.049 96.0993 29.0574C96.0993 31.9416 96.1075 32.0046 96.4733 31.9358C96.6013 31.9117 96.6211 31.781 96.6614 30.6955C96.7091 29.4105 96.7713 29.1511 97.1185 28.7898C97.4226 28.4732 97.7087 28.3463 98.1184 28.3463C98.5738 28.3463 98.8375 28.4467 99.0938 28.7176C99.4269 29.0696 99.4713 29.2642 99.5163 30.5706C99.5518 31.6005 99.5814 31.8294 99.6876 31.8952C99.7582 31.939 99.8745 31.9526 99.9461 31.9256C100.059 31.8828 100.076 31.7087 100.076 30.5912C100.076 28.895 99.9112 28.4224 99.1698 27.9944C98.4403 27.5734 97.6756 27.6635 97.0444 28.245L96.6561 28.6028V27.4718C96.6561 26.3588 96.6126 26.1529 96.3777 26.1529C96.3296 26.1529 96.2472 26.1952 96.1947 26.2469ZM111.943 26.2469C111.873 26.3165 111.848 27.0604 111.848 29.1086C111.848 31.5987 111.861 31.8813 111.978 31.9256C112.05 31.9526 112.166 31.9388 112.236 31.895C112.35 31.8245 112.367 31.4986 112.386 29.0913C112.407 26.3619 112.389 26.1529 112.132 26.1529C112.081 26.1529 111.996 26.1952 111.943 26.2469ZM56.2078 26.3282C56.1864 26.3831 56.1784 27.6616 56.1899 29.1693L56.2108 31.9106H58.1595H60.1082V31.6756V31.4406L58.418 31.4194L56.7278 31.3983V30.3443V29.2903L58.0118 29.2687C59.1082 29.2503 59.3079 29.2281 59.3792 29.1167C59.4397 29.022 59.434 28.952 59.3582 28.8621C59.2708 28.7584 59.0459 28.738 57.9908 28.738H56.7278V27.7604V26.7827L58.418 26.7616L60.1082 26.7404V26.5054V26.2704L58.1774 26.2494C56.6715 26.233 56.2381 26.2504 56.2078 26.3282ZM74.0473 26.5508C73.8788 26.6476 73.8647 26.9599 74.023 27.0893C74.0863 27.141 74.2205 27.1717 74.3213 27.1577C74.5617 27.1241 74.6271 26.7196 74.4168 26.568C74.2497 26.4477 74.2288 26.4467 74.0473 26.5508ZM14.9879 27.0861C14.1607 27.3883 13.6016 27.919 13.2066 28.7772C12.9322 29.3733 12.9463 30.4146 13.2373 31.0295C13.8941 32.4181 15.4076 33.1036 16.8514 32.6665C19.4613 31.8765 19.6954 28.3119 17.2112 27.188C16.5953 26.9093 15.5971 26.8636 14.9879 27.0861ZM27.2376 27.0937C26.6951 27.2053 25.9655 27.6338 25.5805 28.067C24.3058 29.5007 24.7555 31.7433 26.4914 32.6097C27.2973 33.0118 28.2442 33.0306 29.0924 32.6611C29.5886 32.4448 30.2518 31.7995 30.5263 31.2656C30.7391 30.8517 30.7586 30.745 30.7586 29.9914C30.7586 29.2498 30.7367 29.125 30.5368 28.724C30.2475 28.1438 29.5159 27.4725 28.9428 27.2614C28.424 27.0701 27.6988 26.9989 27.2376 27.0937ZM62.8272 27.8284C62.5142 27.9432 62.3172 28.0859 62.0043 28.4246L61.8233 28.6205L61.8208 28.3032C61.8194 28.1288 61.7753 27.9437 61.7228 27.892C61.5881 27.7593 61.3669 27.7752 61.3098 27.9219C61.2249 28.1396 61.2557 31.6359 61.3438 31.7983C61.3892 31.8816 61.4894 31.9498 61.5666 31.9498C61.859 31.9498 61.8978 31.7961 61.8978 30.639C61.8978 29.4431 61.9701 29.1195 62.3192 28.7512C62.8407 28.2012 63.81 28.1928 64.2668 28.7344C64.5053 29.0172 64.5583 29.3035 64.5992 30.5314C64.6347 31.5976 64.6637 31.8292 64.7703 31.8952C64.8409 31.939 64.9572 31.9526 65.0288 31.9256C65.1421 31.8827 65.1589 31.7058 65.1589 30.552C65.1589 29.1519 65.0964 28.8096 64.7587 28.3598C64.3758 27.8496 63.458 27.5971 62.8272 27.8284ZM67.8632 27.7929C66.8411 28.1002 66.2422 28.8692 66.2425 29.8739C66.2427 30.7544 66.6444 31.3753 67.4961 31.8117C67.9944 32.067 68.8224 32.0509 69.3615 31.7754C69.7543 31.5747 69.7742 31.5722 69.8511 31.7137C69.9579 31.9103 69.9525 32.2879 69.8394 32.5325C69.6651 32.9094 69.4123 32.9981 68.3695 33.0483C67.653 33.0829 67.3508 33.1294 67.1964 33.2291C66.7639 33.5083 67.0788 33.9498 67.542 33.7138C67.7157 33.6254 67.9987 33.596 68.6008 33.604C69.4993 33.6159 69.7238 33.5483 70.1051 33.1514C70.2226 33.0291 70.3568 32.8297 70.4033 32.7084C70.5376 32.3586 70.5054 31.7032 70.3382 31.3802C70.1913 31.0964 70.1914 31.0849 70.3405 30.788C70.5693 30.3324 70.6094 29.7818 70.4524 29.25C70.1439 28.2045 68.8729 27.4893 67.8632 27.7929ZM76.6522 27.8325C76.0778 28.0411 75.8415 28.42 75.8954 29.0459C75.9328 29.4818 76.3532 29.7964 77.3108 30.1051C77.825 30.2709 78.2032 30.5697 78.2032 30.8102C78.2032 31.0551 77.8573 31.3744 77.5258 31.4356C77.1419 31.5066 76.6464 31.3564 76.3529 31.0802C75.8516 30.6084 75.5185 30.9937 75.9801 31.5114C76.4523 32.0411 77.5347 32.1758 78.1771 31.7848C78.9652 31.3051 78.9485 30.2452 78.1466 29.8486C77.9809 29.7667 77.5993 29.62 77.2987 29.5226C76.683 29.3232 76.4533 29.1419 76.4533 28.8555C76.4533 28.5774 76.7043 28.3658 77.1038 28.3071C77.4764 28.2522 77.77 28.3333 78.1408 28.5934C78.3596 28.7468 78.385 28.7492 78.5075 28.6286C78.6261 28.5118 78.6273 28.4781 78.5197 28.2894C78.2531 27.8215 77.3146 27.5919 76.6522 27.8325ZM88.1203 27.8289C87.381 28.0989 87.0708 28.767 87.4218 29.3337C87.6115 29.6403 87.9555 29.8453 88.6614 30.0726C89.2129 30.2501 89.6567 30.5733 89.6567 30.7973C89.6567 31.0071 89.3319 31.3188 89.0161 31.4119C88.614 31.5306 88.1728 31.4107 87.7885 31.0784C87.4654 30.799 87.241 30.8066 87.2066 31.0981C87.1555 31.5302 87.9982 32.0281 88.7806 32.0281C88.939 32.0281 89.2559 31.9362 89.4847 31.824C90.1487 31.498 90.4013 30.8178 90.0599 30.2748C89.8701 29.973 89.5809 29.8016 88.8464 29.5555C88.0462 29.2875 87.9069 29.1836 87.9069 28.8555C87.9069 28.6565 87.9573 28.5524 88.0973 28.462C88.5214 28.1883 89.2316 28.2485 89.5401 28.5843C89.7108 28.77 89.7673 28.7746 89.9288 28.6155C90.0388 28.5072 90.0398 28.4675 89.938 28.2735C89.7081 27.8356 88.7461 27.6003 88.1203 27.8289ZM92.569 27.848C92.0148 28.0157 91.383 28.6512 91.2143 29.2107C91.145 29.4403 91.0884 29.7387 91.0884 29.8739C91.0884 30.9905 92.1428 32.0281 93.2775 32.0281C93.9473 32.0281 94.8267 31.5598 94.8267 31.2031C94.8267 30.8983 94.5038 30.8672 94.144 31.1375C93.9042 31.3177 93.7532 31.3633 93.3242 31.3855C92.8523 31.4099 92.7609 31.389 92.4321 31.1809C91.7119 30.7253 91.4971 29.7488 91.9592 29.0311C92.2643 28.5573 92.6771 28.3463 93.2987 28.3463C93.6898 28.3463 93.8271 28.3866 94.1462 28.5947C94.4382 28.7852 94.5574 28.8245 94.657 28.763C95.0357 28.5293 94.6496 28.0518 93.9029 27.8305C93.4364 27.6923 93.0681 27.6971 92.569 27.848ZM102.73 27.8049C102.295 27.929 101.722 28.3689 101.47 28.771C101.267 29.0965 101.225 29.2523 101.201 29.7715C101.176 30.3112 101.199 30.4384 101.384 30.812C101.611 31.2689 101.893 31.5432 102.413 31.8146C102.876 32.0559 103.799 32.0555 104.263 31.8138C106.03 30.8925 105.827 28.3865 103.94 27.8345C103.504 27.7071 103.107 27.6974 102.73 27.8049ZM107.862 27.8278C106.876 28.1747 106.35 28.8929 106.35 29.8919C106.35 31.7348 108.549 32.6967 109.92 31.453C110.461 30.9609 110.612 30.6171 110.612 29.8739C110.612 29.1286 110.462 28.7869 109.913 28.2893C109.358 27.785 108.519 27.5963 107.862 27.8278ZM73.9904 27.9495C73.9406 28.0411 73.9081 28.8016 73.9081 29.8739C73.9081 31.6838 73.9472 31.9498 74.2131 31.9498C74.5249 31.9498 74.5444 31.8276 74.5444 29.8739C74.5444 28.51 74.5179 27.9599 74.449 27.892C74.3056 27.7508 74.0833 27.7787 73.9904 27.9495ZM69.1191 28.4947C69.6708 28.7719 69.9312 29.2206 69.9312 29.8938C69.9312 30.7562 69.2758 31.4014 68.4 31.4014C67.9264 31.4014 67.6488 31.2948 67.3169 30.9854C66.9763 30.6679 66.8292 30.3291 66.8292 29.862C66.8292 28.9918 67.4808 28.3463 68.3592 28.3463C68.6584 28.3463 68.9292 28.3992 69.1191 28.4947ZM104.248 28.6119C104.997 29.1748 105.123 30.0858 104.556 30.8342C104.247 31.2411 103.801 31.4238 103.208 31.3866C102.798 31.3609 102.652 31.3122 102.406 31.1192C101.63 30.5115 101.543 29.4845 102.208 28.7872C102.536 28.4435 102.832 28.3412 103.426 28.3668C103.86 28.3854 104.003 28.428 104.248 28.6119ZM109.194 28.474C109.82 28.7667 110.196 29.5722 110.017 30.2366C109.805 31.0194 109.208 31.4386 108.378 31.3866C107.968 31.3609 107.822 31.3122 107.576 31.1192C106.971 30.6452 106.752 29.8295 107.068 29.2245C107.247 28.8828 107.591 28.5436 107.871 28.4341C108.184 28.3117 108.892 28.3331 109.194 28.474ZM21.5719 34.29C20.5691 34.6152 19.8743 35.4293 19.7713 36.3998C19.6255 37.7738 20.7365 39 22.1273 39C22.9024 39 23.3589 38.8183 23.8844 38.3008C24.4099 37.7832 24.5944 37.3336 24.5944 36.5702C24.5944 35.6522 24.0321 34.8099 23.168 34.4334C22.7783 34.2636 21.8974 34.1845 21.5719 34.29ZM11.6068 34.5662C10.4168 34.8868 9.81386 36.2075 10.3647 37.2871C10.9706 38.4748 12.5511 38.7232 13.5075 37.7813C14.8983 36.4116 13.505 34.0547 11.6068 34.5662ZM31.5844 34.643C30.8296 34.9087 30.306 35.5074 30.1959 36.2307C30.0816 36.9809 30.577 37.8507 31.3097 38.1868C32.0883 38.5438 32.8559 38.4055 33.474 37.7968C33.7375 37.5373 33.9141 37.2826 33.9708 37.0808C34.2722 36.0051 33.7118 34.9554 32.6729 34.6501C32.1996 34.511 31.9638 34.5095 31.5844 34.643Z" fill="white"/>
</svg>
