<svg width="24" height="24" viewBox="0 0 24 24" fill="none" xmlns="http://www.w3.org/2000/svg">
<path fill-rule="evenodd" clip-rule="evenodd" d="M2.99609 11.7433C2.99609 12.9865 4.00387 13.9943 5.24703 13.9943V13.9943C5.84417 13.995 6.41699 13.7578 6.83869 13.335C7.20719 12.9816 7.78875 12.9816 8.15724 13.335C8.57894 13.7578 9.15177 13.995 9.74891 13.9943V13.9943C10.346 13.995 10.9189 13.7578 11.3406 13.335C11.7091 12.9816 12.2906 12.9816 12.6591 13.335C13.0808 13.7578 13.6536 13.995 14.2508 13.9943V13.9943C14.8479 13.995 15.4207 13.7578 15.8424 13.335C16.2109 12.9816 16.7925 12.9816 17.161 13.335C17.5827 13.7578 18.1555 13.995 18.7527 13.9943V13.9943C19.9958 13.9943 21.0036 12.9865 21.0036 11.7433V11.7433C21.0036 10.2239 19.7719 8.99219 18.2524 8.99219H5.74724C4.22782 8.99219 2.99609 10.2239 2.99609 11.7433Z" stroke="#777E91" stroke-width="1.5" stroke-linecap="round" stroke-linejoin="round"/>
<path d="M22.0044 21.0002H1.99609" stroke="#777E91" stroke-width="1.5" stroke-linecap="round" stroke-linejoin="round"/>
<path d="M7.00021 8.99312V6.99219" stroke="#777E91" stroke-width="1.5" stroke-linecap="round" stroke-linejoin="round"/>
<path d="M17.0041 8.99312V6.99219" stroke="#777E91" stroke-width="1.5" stroke-linecap="round" stroke-linejoin="round"/>
<path d="M12.0002 8.99312V6.99219" stroke="#777E91" stroke-width="1.5" stroke-linecap="round" stroke-linejoin="round"/>
<path d="M7.00021 3.9926V2.99219" stroke="#777E91" stroke-width="1.5" stroke-linecap="round" stroke-linejoin="round"/>
<path d="M12.0002 3.9926V2.99219" stroke="#777E91" stroke-width="1.5" stroke-linecap="round" stroke-linejoin="round"/>
<path d="M17.0041 3.9926V2.99219" stroke="#777E91" stroke-width="1.5" stroke-linecap="round" stroke-linejoin="round"/>
<path d="M20.0028 17.5002H3.99609" stroke="#777E91" stroke-width="1.5" stroke-linecap="round" stroke-linejoin="round"/>
<path d="M20.0041 21.0041V13.9297" stroke="#777E91" stroke-width="1.5" stroke-linecap="round" stroke-linejoin="round"/>
<path d="M3.9963 21.0041V13.9297" stroke="#777E91" stroke-width="1.5" stroke-linecap="round" stroke-linejoin="round"/>
</svg>
