<svg width="18" height="18" viewBox="0 0 18 18" fill="none" xmlns="http://www.w3.org/2000/svg">
<g clip-path="url(#clip0_569_44585)">
<path d="M15.8717 14.6847L14.4583 16.1134C14.4583 16.1134 10.7859 17.7044 5.53967 12.4011C0.293396 7.09777 1.86728 3.38546 1.86728 3.38546L3.28062 1.95676C3.91914 1.3113 4.97516 1.38716 5.51697 2.11742L6.86601 3.93569C7.30908 4.53287 7.25033 5.36852 6.72817 5.89635L5.53967 7.09777C5.53967 7.09777 5.53967 8.15843 7.63818 10.2798C9.73669 12.4011 10.7859 12.4011 10.7859 12.4011L11.9744 11.1997C12.4966 10.6718 13.3233 10.6124 13.914 11.0603L15.7127 12.424C16.4352 12.9717 16.5102 14.0392 15.8717 14.6847Z" fill="#FCFCFD"/>
</g>
<defs>
<clipPath id="clip0_569_44585">
<rect width="17.8065" height="18" fill="white"/>
</clipPath>
</defs>
</svg>
