<svg width="18" height="14" viewBox="0 0 18 14" fill="none" xmlns="http://www.w3.org/2000/svg">
<path fill-rule="evenodd" clip-rule="evenodd" d="M2.99902 0.250488C1.75638 0.250488 0.749023 1.25785 0.749023 2.50049V11.5005C0.749023 12.7431 1.75638 13.7505 2.99902 13.7505H14.999C16.2417 13.7505 17.249 12.7431 17.249 11.5005V2.50049C17.249 1.25785 16.2417 0.250488 14.999 0.250488H2.99902ZM4.97918 3.42434C4.66097 3.15917 4.18805 3.20216 3.92288 3.52037C3.6577 3.83858 3.7007 4.3115 4.0189 4.57667L7.55863 7.52644C8.39303 8.22178 9.60505 8.22178 10.4395 7.52644L13.9792 4.57667C14.2974 4.3115 14.3404 3.83858 14.0752 3.52037C13.81 3.20216 13.3371 3.15917 13.0189 3.42434L9.47918 6.37411C9.20105 6.60589 8.79704 6.60589 8.51891 6.37411L4.97918 3.42434Z" fill="#23262F"/>
</svg>
