<svg width="22" height="21" viewBox="0 0 22 21" fill="none" xmlns="http://www.w3.org/2000/svg">
<path d="M7.66547 5.99323H4.33075C3.87032 5.99323 3.49707 5.61998 3.49707 5.15955V4.32587C3.49707 3.86544 3.87032 3.49219 4.33075 3.49219H8.49915" stroke="#FFCF00" stroke-width="1.5" stroke-linecap="round" stroke-linejoin="round"/>
<path d="M17.6699 15.1627H4.33105V5.99219H8.49946" stroke="#FFCF00" stroke-width="1.5" stroke-linecap="round" stroke-linejoin="round"/>
<path d="M18.5033 15.1668H3.49707" stroke="#FFCF00" stroke-width="1.5" stroke-linecap="round" stroke-linejoin="round"/>
<path d="M10.9998 15.1641V16.8314" stroke="#FFCF00" stroke-width="1.5" stroke-linecap="round" stroke-linejoin="round"/>
<ellipse cx="11.0005" cy="18.0865" rx="1.25052" ry="1.25052" stroke="#FFCF00" stroke-width="1.5" stroke-linecap="round" stroke-linejoin="round"/>
<path d="M17.6698 10.1641V15.1661" stroke="#FFCF00" stroke-width="1.5" stroke-linecap="round" stroke-linejoin="round"/>
<path fill-rule="evenodd" clip-rule="evenodd" d="M17.7974 7.72957L16.2109 6.75168V4.95304L17.7974 3.97513C17.9403 3.88706 18.1196 3.88318 18.2662 3.96501C18.4127 4.04684 18.5036 4.20156 18.5036 4.36941V7.33531C18.5036 7.50316 18.4127 7.65788 18.2662 7.7397C18.1196 7.82153 17.9403 7.81765 17.7974 7.72957Z" stroke="#FFCF00" stroke-linecap="round" stroke-linejoin="round"/>
<rect x="11" y="3.49219" width="5.2105" height="4.72419" rx="1.25" stroke="#FFCF00" stroke-linecap="round" stroke-linejoin="round"/>
</svg>
