<svg width="20" height="20" viewBox="0 0 20 20" fill="none" xmlns="http://www.w3.org/2000/svg">
<path d="M9.99967 9.16927V8.33594" stroke="#FFCF00" stroke-width="1.5" stroke-linecap="round" stroke-linejoin="round"/>
<path d="M9.99967 14.1641V14.9974" stroke="#FFCF00" stroke-width="1.5" stroke-linecap="round" stroke-linejoin="round"/>
<path d="M8.55301 13.5691C8.76884 13.9224 9.13717 14.1666 9.58301 14.1666H9.99967H10.4963C11.143 14.1666 11.6663 13.6424 11.6663 12.9966C11.6663 12.4599 11.3005 11.9924 10.7805 11.8607L9.21801 11.4682C8.69884 11.3382 8.33301 10.8707 8.33301 10.3341C8.33301 9.6874 8.85717 9.16406 9.50301 9.16406H9.99967H10.4163C10.8605 9.16406 11.2288 9.4074 11.4438 9.7599" stroke="#FFCF00" stroke-width="1.5" stroke-linecap="round" stroke-linejoin="round"/>
<path fill-rule="evenodd" clip-rule="evenodd" d="M15.8333 17.0833H4.16667C3.24583 17.0833 2.5 16.3375 2.5 15.4167V7.91667C2.5 6.99583 3.24583 6.25 4.16667 6.25H15.8333C16.7542 6.25 17.5 6.99583 17.5 7.91667V15.4167C17.5 16.3375 16.7542 17.0833 15.8333 17.0833Z" stroke="#FFCF00" stroke-width="1.5" stroke-linecap="round" stroke-linejoin="round"/>
<path d="M13.4782 6.2474V4.58073C13.4782 3.6599 12.7323 2.91406 11.8115 2.91406H8.18815C7.26732 2.91406 6.52148 3.6599 6.52148 4.58073V6.2474" stroke="#FFCF00" stroke-width="1.5" stroke-linecap="round" stroke-linejoin="round"/>
</svg>
