<svg width="20" height="20" viewBox="0 0 20 20" fill="none" xmlns="http://www.w3.org/2000/svg">
<path d="M17.3271 7.93624C17.9855 8.5946 17.9855 9.66201 17.3271 10.3204C16.6688 10.9787 15.6013 10.9787 14.943 10.3204C14.2846 9.66201 14.2846 8.5946 14.943 7.93624C15.6013 7.27788 16.6688 7.27788 17.3271 7.93624" stroke="#FFCF00" stroke-width="1.5" stroke-linecap="round" stroke-linejoin="round"/>
<path d="M11.8357 4.92696C12.8494 5.94069 12.8494 7.58428 11.8357 8.59802C10.8219 9.61176 9.17834 9.61176 8.1646 8.59802C7.15086 7.58429 7.15086 5.9407 8.1646 4.92696C9.17833 3.91322 10.8219 3.91322 11.8357 4.92696" stroke="#FFCF00" stroke-width="1.5" stroke-linecap="round" stroke-linejoin="round"/>
<path d="M5.05709 7.93624C5.71545 8.5946 5.71545 9.66201 5.05709 10.3204C4.39873 10.9787 3.33133 10.9787 2.67297 10.3204C2.01461 9.66201 2.01461 8.5946 2.67297 7.93624C3.33133 7.27788 4.39874 7.27788 5.05709 7.93624" stroke="#FFCF00" stroke-width="1.5" stroke-linecap="round" stroke-linejoin="round"/>
<path d="M19.1668 15.8333V14.92C19.1668 13.7692 18.2343 12.8367 17.0835 12.8367H16.416" stroke="#FFCF00" stroke-width="1.5" stroke-linecap="round" stroke-linejoin="round"/>
<path d="M0.833496 15.8333V14.92C0.833496 13.7692 1.766 12.8367 2.91683 12.8367H3.58433" stroke="#FFCF00" stroke-width="1.5" stroke-linecap="round" stroke-linejoin="round"/>
<path d="M14.4495 15.8333V14.4992C14.4495 12.8883 13.1436 11.5825 11.5328 11.5825H8.46696C6.85613 11.5825 5.55029 12.8883 5.55029 14.4992V15.8333" stroke="#FFCF00" stroke-width="1.5" stroke-linecap="round" stroke-linejoin="round"/>
</svg>
