<svg width="20" height="20" viewBox="0 0 20 20" fill="none" xmlns="http://www.w3.org/2000/svg">
<path d="M3.33301 16.6641C3.33301 14.5807 4.99967 12.9141 7.08301 12.9141H9.24967" stroke="#FFCF00" stroke-width="1.5" stroke-linecap="round" stroke-linejoin="round"/>
<path d="M12.5002 4.33594C13.9169 5.7526 13.9169 8.0026 12.5002 9.33594C11.0836 10.6693 8.83357 10.7526 7.50024 9.33594C6.1669 7.91927 6.08357 5.66927 7.50024 4.33594C8.9169 3.0026 11.0836 3.0026 12.5002 4.33594" stroke="#FFCF00" stroke-width="1.5" stroke-linecap="round" stroke-linejoin="round"/>
<path d="M15.333 13.1641C16.1663 13.9974 16.1663 15.3307 15.333 16.1641C14.4997 16.9974 13.1663 16.9974 12.333 16.1641C11.4997 15.3307 11.4997 13.9974 12.333 13.1641C13.1663 12.3307 14.4997 12.3307 15.333 13.1641" stroke="#FFCF00" stroke-width="1.5" stroke-linecap="round" stroke-linejoin="round"/>
<path d="M16.6663 17.4974L15.333 16.1641" stroke="#FFCF00" stroke-width="1.5" stroke-linecap="round" stroke-linejoin="round"/>
</svg>
