<svg width="20" height="20" viewBox="0 0 20 20" fill="none" xmlns="http://www.w3.org/2000/svg">
<path d="M11.591 8.409C12.4697 9.28768 12.4697 10.7123 11.591 11.591C10.7123 12.4697 9.2877 12.4697 8.40901 11.591C7.53033 10.7123 7.53033 9.28768 8.40901 8.409C9.2877 7.53031 10.7123 7.53031 11.591 8.409" stroke="#FFCF00" stroke-width="1.5" stroke-linecap="round" stroke-linejoin="round"/>
<path fill-rule="evenodd" clip-rule="evenodd" d="M4.37481 10C4.37481 10.2475 4.39731 10.495 4.42731 10.735L3.10398 11.77C2.81064 12 2.73064 12.4108 2.91731 12.7333L4.09398 14.7692C4.27981 15.0917 4.67481 15.2275 5.02064 15.0892L6.20564 14.6133C6.43981 14.5192 6.70064 14.5567 6.91064 14.6958C7.09398 14.8175 7.28398 14.9292 7.48064 15.0292C7.70564 15.1433 7.86898 15.3475 7.90481 15.5975L8.08564 16.8583C8.13814 17.2267 8.45398 17.5 8.82564 17.5H11.1731C11.5448 17.5 11.8606 17.2267 11.9131 16.8583L12.094 15.5983C12.1298 15.3483 12.2948 15.1425 12.5206 15.0292C12.7165 14.9308 12.9056 14.82 13.0881 14.6992C13.2998 14.5592 13.5615 14.5192 13.7965 14.6142L14.979 15.0892C15.324 15.2275 15.719 15.0917 15.9056 14.7692L17.0823 12.7333C17.269 12.4108 17.189 11.9992 16.8956 11.77L15.5723 10.735C15.6023 10.495 15.6248 10.2475 15.6248 10C15.6248 9.7525 15.6023 9.505 15.5723 9.265L16.8956 8.23C17.189 8 17.269 7.58917 17.0823 7.26667L15.9056 5.23083C15.7198 4.90833 15.3248 4.7725 14.979 4.91083L13.7965 5.38583C13.5615 5.48 13.2998 5.44083 13.0881 5.30083C12.9056 5.18 12.7165 5.06917 12.5206 4.97083C12.2948 4.8575 12.1298 4.65167 12.094 4.40167L11.914 3.14167C11.8615 2.77333 11.5456 2.5 11.174 2.5H8.82648C8.45481 2.5 8.13898 2.77333 8.08648 3.14167L7.90481 4.40333C7.86898 4.6525 7.70481 4.8575 7.48064 4.97167C7.28398 5.07167 7.09398 5.18417 6.91064 5.305C6.69981 5.44333 6.43898 5.48083 6.20481 5.38667L5.02064 4.91083C4.67481 4.7725 4.27981 4.90833 4.09398 5.23083L2.91731 7.26667C2.73064 7.58917 2.81064 8.00083 3.10398 8.23L4.42731 9.265C4.39731 9.505 4.37481 9.7525 4.37481 10V10Z" stroke="#FFCF00" stroke-width="1.5" stroke-linecap="round" stroke-linejoin="round"/>
</svg>
