<svg width="22" height="21" viewBox="0 0 22 21" fill="none" xmlns="http://www.w3.org/2000/svg">
<path fill-rule="evenodd" clip-rule="evenodd" d="M7.66602 4.32361L8.7498 2.96888C8.9082 2.7713 9.14747 2.65625 9.4009 2.65625H12.6014C12.8548 2.65625 13.0941 2.7713 13.2525 2.96888L14.3355 4.32361V4.32361V5.15729C14.3355 5.61748 13.962 5.99097 13.5018 5.99097H8.4997C8.0395 5.99097 7.66602 5.61748 7.66602 5.15729V4.32361V4.32361Z" stroke="#FFCF00" stroke-width="1.5" stroke-linecap="round" stroke-linejoin="round"/>
<path d="M7.66578 4.32031H5.99842C5.0772 4.32031 4.33105 5.06646 4.33105 5.98767V16.8255C4.33105 17.7467 5.0772 18.4929 5.99842 18.4929H16.0026C16.9238 18.4929 17.6699 17.7467 17.6699 16.8255V5.98767C17.6699 5.06646 16.9238 4.32031 16.0026 4.32031H14.3352" stroke="#FFCF00" stroke-width="1.5" stroke-linecap="round" stroke-linejoin="round"/>
<path d="M12.6677 11.4062L10.5835 13.4905L9.33301 12.2399" stroke="#FFCF00" stroke-width="1.5" stroke-linecap="round" stroke-linejoin="round"/>
</svg>
